<?xml version="1.0" encoding="utf-8"?>
<!-- Generator: Adobe Illustrator 16.0.0, SVG Export Plug-In . SVG Version: 6.00 Build 0)  -->
<!DOCTYPE svg PUBLIC "-//W3C//DTD SVG 1.1//EN" "http://www.w3.org/Graphics/SVG/1.1/DTD/svg11.dtd">
<svg version="1.1" xmlns="http://www.w3.org/2000/svg" xmlns:xlink="http://www.w3.org/1999/xlink" x="0px" y="0px" width="1080px"
	 height="1080px" viewBox="0 0 1080 1080" enable-background="new 0 0 1080 1080" xml:space="preserve">
<g id="body_up">
	<path fill="#D0D2D3" d="M894.488,701.104c0,6.734-5.453,12.186-12.186,12.186H236.48c-6.729,0-12.185-5.451-12.185-12.186v-440.7
		c0-6.731,5.456-12.185,12.185-12.185h645.822c6.732,0,12.186,5.454,12.186,12.185V701.104z"/>
	<path fill="#929497" d="M562.868,265.861c0,1.918-1.557,3.476-3.479,3.476c-1.917,0-3.475-1.557-3.475-3.476
		c0-1.922,1.558-3.478,3.475-3.478C561.312,262.383,562.868,263.938,562.868,265.861z"/>
</g>
<g id="lcd">
	<rect x="246.634" y="280.713" fill="#6D6E70" width="625.513" height="385.866"/>
</g>
<g id="lcd_shadow">
	<polygon opacity="0.1" fill="#D0D2D3" points="872.146,522.645 452.478,280.713 872.146,280.713 	"/>
</g>
<g id="body_down">
	<path fill="#E6E7E8" d="M137.982,688.884l0.001,17.639c0.001,5.258,5.457,9.518,12.187,9.518l818.445-0.094
		c6.733,0,12.186-4.262,12.185-9.52l-0.001-17.639L137.982,688.884z"/>
	<path opacity="0.1" fill="#545454" d="M968.615,711.255l-818.445,0.092c-6.729,0-12.186-4.26-12.187-9.516l-0.001-12.717l0,0
		l0.001,17.639c0.001,5.258,5.457,9.518,12.187,9.518l818.445-0.094c6.733,0,12.186-4.262,12.185-9.52v-4.918
		C980.798,706.997,975.347,711.255,968.615,711.255z"/>
	<rect x="501.512" y="688.786" fill="#BBBDBF" width="117.79" height="9.139"/>
	<rect x="912.57" y="689.31" fill="#BBBDBF" width="48.482" height="9.137"/>
	<path fill="#D1D3D4" d="M474.419,707.046H119.998c-1.686,0-3.356,0.067-5.016,0.166v152.304c1.66,0.101,3.33,0.17,5.016,0.17
		h354.421c43.875,0,79.776-34.347,79.776-76.323C554.195,741.389,518.294,707.046,474.419,707.046z"/>
	<g>
		<rect x="112.54" y="828.112" fill="#D1D3D4" width="248.904" height="2.233"/>
		<rect x="110.813" y="841.962" fill="#D1D3D4" width="248.903" height="2.231"/>
		<rect x="112.106" y="849.556" fill="#D1D3D4" width="248.907" height="2.233"/>
		<rect x="113.403" y="823.199" fill="#D1D3D4" width="248.903" height="2.231"/>
		<rect x="112.54" y="818.281" fill="#D1D3D4" width="248.904" height="2.234"/>
		<rect x="111.243" y="814.705" fill="#D1D3D4" width="248.906" height="2.234"/>
		<rect x="112.54" y="775.837" fill="#D1D3D4" width="248.904" height="2.232"/>
		<rect x="113.403" y="770.922" fill="#D1D3D4" width="248.903" height="2.233"/>
		<rect x="112.106" y="757.071" fill="#D1D3D4" width="248.907" height="2.234"/>
		<rect x="113.403" y="711.507" fill="#D1D3D4" width="248.903" height="2.235"/>
		<rect x="112.54" y="720.89" fill="#D1D3D4" width="248.904" height="2.233"/>
		<rect x="111.243" y="730.271" fill="#D1D3D4" width="248.906" height="2.232"/>
		<rect x="112.54" y="733.85" fill="#D1D3D4" width="248.904" height="2.232"/>
	</g>
	<g>
		<path fill="#8B5E3C" d="M477.825,698.824H113.44c-1.792,0-3.573,0.075-5.341,0.184v8.038h366.225
			c43.875,0,79.773,34.343,79.773,76.316c0,41.977-35.898,76.323-79.773,76.323H108.1v8.034c1.768,0.112,3.549,0.184,5.341,0.184
			h364.385c46.725,0,84.953-38.043,84.953-84.541C562.778,736.866,524.55,698.824,477.825,698.824z"/>
	</g>
	<g opacity="0.05">
		<path d="M495.961,778.069c0,0-14.147,0.112-35.367,0.28c-10.61,0.045-22.989,0.097-36.251,0.152
			c-13.263,0.021-27.41,0.044-41.557,0.066c-14.147-0.021-28.294-0.044-41.557-0.065c-13.263-0.056-25.642-0.107-36.252-0.152
			c-21.22-0.169-35.367-0.281-35.367-0.281s14.147-0.112,35.367-0.281c10.61-0.045,22.989-0.097,36.252-0.152
			c13.263-0.021,27.41-0.044,41.557-0.065c14.146,0.022,28.293,0.045,41.557,0.066c13.263,0.056,25.641,0.107,36.251,0.152
			C481.814,777.957,495.961,778.069,495.961,778.069z"/>
	</g>
	<g opacity="0.05">
		<path d="M395.305,791.568c0,0-14.147,0.112-35.368,0.28c-10.61,0.045-22.989,0.097-36.251,0.152
			c-13.263,0.021-27.41,0.044-41.557,0.066c-14.147-0.022-28.294-0.044-41.557-0.065c-13.263-0.056-25.642-0.107-36.251-0.152
			c-21.221-0.169-35.368-0.281-35.368-0.281s14.147-0.112,35.368-0.281c10.61-0.045,22.989-0.097,36.251-0.152
			c13.263-0.021,27.41-0.043,41.557-0.065c14.147,0.022,28.294,0.045,41.557,0.066c13.263,0.056,25.642,0.107,36.251,0.152
			C381.158,791.456,395.305,791.568,395.305,791.568z"/>
	</g>
	<g opacity="0.05">
		<path d="M324.089,839.432c0,0-2.092,0.035-5.753,0.097c-3.661,0.044-8.891,0.107-15.167,0.184
			c-6.276,0.045-13.599,0.097-21.444,0.152c-7.846,0.021-16.214,0.044-24.583,0.066c-8.368-0.022-16.736-0.044-24.582-0.065
			c-7.845-0.056-15.167-0.107-21.444-0.152c-6.276-0.076-11.506-0.14-15.167-0.184c-3.661-0.063-5.753-0.098-5.753-0.098
			s2.092-0.035,5.753-0.098c3.661-0.044,8.891-0.107,15.167-0.184c6.276-0.045,13.599-0.097,21.444-0.152
			c7.846-0.021,16.214-0.043,24.582-0.065c8.369,0.022,16.737,0.045,24.583,0.066c7.845,0.056,15.167,0.107,21.444,0.152
			c6.276,0.076,11.506,0.14,15.167,0.184C321.997,839.396,324.089,839.432,324.089,839.432z"/>
	</g>
	<g opacity="0.05">
		<path d="M375.951,748.402c0,0-2.092,0.035-5.753,0.097c-3.661,0.044-8.891,0.107-15.167,0.184
			c-6.276,0.045-13.598,0.097-21.443,0.152c-7.846,0.021-16.214,0.044-24.582,0.066c-8.368-0.022-16.736-0.044-24.582-0.065
			c-7.845-0.056-15.167-0.107-21.443-0.152c-6.276-0.076-11.506-0.14-15.167-0.184c-3.661-0.063-5.753-0.098-5.753-0.098
			s2.092-0.035,5.753-0.098c3.661-0.044,8.891-0.107,15.167-0.184c6.276-0.045,13.598-0.097,21.443-0.152
			c7.846-0.021,16.214-0.043,24.582-0.065c8.368,0.022,16.736,0.045,24.582,0.066c7.845,0.056,15.167,0.107,21.443,0.152
			c6.276,0.076,11.507,0.14,15.167,0.184C373.859,748.367,375.951,748.402,375.951,748.402z"/>
	</g>
	<g opacity="0.05">
		<path d="M537.807,801.506c0,0-1.934,0.035-5.317,0.097c-3.384,0.044-8.217,0.107-14.018,0.184
			c-5.8,0.045-12.567,0.097-19.818,0.152c-7.25,0.021-14.984,0.044-22.718,0.066c-7.734-0.022-15.468-0.044-22.718-0.065
			c-7.25-0.056-14.018-0.107-19.818-0.152c-5.8-0.076-10.634-0.14-14.018-0.184c-3.383-0.063-5.317-0.098-5.317-0.098
			s1.934-0.035,5.317-0.098c3.384-0.044,8.217-0.107,14.018-0.184c5.8-0.045,12.567-0.097,19.818-0.152
			c7.25-0.021,14.984-0.043,22.718-0.065c7.733,0.022,15.467,0.045,22.718,0.066c7.25,0.056,14.018,0.107,19.818,0.152
			c5.8,0.076,10.634,0.14,14.018,0.184C535.873,801.471,537.807,801.506,537.807,801.506z"/>
	</g>
	<path opacity="0.2" fill="#231F20" d="M469.046,715.794c43.877,0,79.776,34.345,79.776,76.317c0,12.228-3.063,23.799-8.467,34.066
		c8.724-12.229,13.84-26.977,13.84-42.815c0-41.974-35.901-76.316-79.776-76.316H119.998c-1.686,0-3.356,0.067-5.016,0.166
		l6.904,8.582H469.046z"/>
	<g id="Book_Mark_1_">
		<polygon fill="#60A57C" points="458.001,761.872 442.128,761.872 442.128,841.14 458.001,823.191 458.001,823.197 		"/>
		<polygon fill="#61A67D" points="458.749,761.872 442.213,761.872 442.213,841.14 458.087,823.191 458.749,823.944 		"/>
		<polygon fill="#61A77E" points="459.496,761.872 442.298,761.872 442.298,841.14 458.172,823.191 459.496,824.692 		"/>
		<polygon fill="#62A87E" points="460.244,761.872 442.383,761.872 442.383,841.14 458.258,823.191 460.244,825.44 		"/>
		<polygon fill="#63A97F" points="460.991,761.872 442.469,761.872 442.469,841.14 458.344,823.191 460.991,826.188 		"/>
		<polygon fill="#63AA80" points="461.738,761.872 442.554,761.872 442.554,841.14 458.429,823.191 461.738,826.936 		"/>
		<polygon fill="#64AB81" points="462.485,761.872 442.639,761.872 442.639,841.14 458.514,823.191 462.485,827.683 		"/>
		<polygon fill="#64AC81" points="463.232,761.872 442.725,761.872 442.725,841.14 458.6,823.191 463.232,828.431 		"/>
		<polygon fill="#65AD82" points="463.98,761.872 442.81,761.872 442.81,841.14 458.686,823.191 463.98,829.178 		"/>
		<polygon fill="#66AE83" points="464.728,761.872 442.895,761.872 442.895,841.14 458.771,823.191 464.728,829.926 		"/>
		<polygon fill="#66AF84" points="465.474,761.872 442.979,761.872 442.979,841.14 458.856,823.191 465.474,830.673 		"/>
		<polygon fill="#67B084" points="466.222,761.872 443.065,761.872 443.065,841.14 458.942,823.191 466.222,831.421 		"/>
		<polygon fill="#68B185" points="466.97,761.872 443.15,761.872 443.15,841.14 459.028,823.191 466.97,832.168 		"/>
		<polygon fill="#68B186" points="467.716,761.872 443.235,761.872 443.235,841.14 459.113,823.191 467.716,832.916 		"/>
		<polygon fill="#69B287" points="468.464,761.872 443.32,761.872 443.32,841.14 459.198,823.191 468.464,833.664 		"/>
		<polygon fill="#69B387" points="469.211,761.872 443.406,761.872 443.406,841.14 459.284,823.191 469.211,834.411 		"/>
		<polygon fill="#6AB488" points="469.958,761.872 443.491,761.872 443.491,841.14 459.369,823.191 469.958,835.159 		"/>
		<polygon fill="#6BB589" points="470.706,761.872 443.576,761.872 443.576,841.14 459.455,823.191 470.706,835.906 		"/>
		<polygon fill="#6BB68A" points="471.453,761.872 443.661,761.872 443.661,841.14 459.541,823.191 471.453,836.654 		"/>
		<polygon fill="#6CB78A" points="472.2,761.872 443.746,761.872 443.746,841.14 459.626,823.191 472.2,837.401 		"/>
		<polygon fill="#6DB88B" points="472.948,761.872 443.832,761.872 443.832,841.14 459.712,823.191 472.948,838.149 		"/>
		<polygon fill="#6DB98C" points="473.695,761.872 443.917,761.872 443.917,841.14 459.797,823.191 473.695,838.896 		"/>
		<polygon fill="#6EBA8D" points="474.442,761.872 444.002,761.872 444.002,841.14 459.883,823.191 474.442,839.645 		"/>
		<polygon fill="#6EBB8D" points="475.189,761.872 444.087,761.872 444.087,841.14 459.968,823.191 475.189,840.392 		"/>
		<polygon fill="#6FBC8E" points="475.937,761.872 444.172,761.872 444.172,841.14 460.054,823.191 475.937,841.14 		"/>
	</g>
	<g opacity="0.2">
		<path d="M495.961,761.922c0,0-1.4,0.088-3.851,0.193c-2.45,0.086-5.951,0.266-10.151,0.378c-4.2,0.129-9.101,0.235-14.352,0.307
			c-2.625,0.028-5.338,0.058-8.095,0.087c-2.756,0.012-5.557,0.022-8.357,0.034c-2.8-0.011-5.601-0.022-8.357-0.033
			c-2.757-0.001-5.47-0.06-8.095-0.085c-5.25-0.07-10.151-0.178-14.352-0.307c-4.2-0.111-7.701-0.294-10.151-0.38
			c-2.451-0.105-3.851-0.194-3.851-0.194s1.4-0.089,3.851-0.194c2.45-0.086,5.951-0.269,10.151-0.38
			c4.2-0.129,9.101-0.236,14.352-0.307c2.625-0.025,5.338-0.084,8.095-0.085c2.756-0.011,5.557-0.022,8.357-0.033
			c2.8,0.012,5.601,0.022,8.357,0.034c2.757,0.029,5.47,0.059,8.095,0.087c5.25,0.071,10.151,0.178,14.352,0.307
			c4.2,0.112,7.701,0.292,10.151,0.378C494.562,761.834,495.961,761.922,495.961,761.922z"/>
	</g>
	<rect x="161.246" y="623.023" fill="#EE6B55" width="359.396" height="16.815"/>
	<rect x="198.651" y="623.023" fill="#D14D3B" width="78.407" height="16.815"/>
	<g>
		<g>
			<g>
				<path fill="#6FBC8E" d="M557.075,610.596c0,5.945-6.3,10.81-14,10.81H189.387c-7.7,0-14-4.864-14-10.81
					c0-5.946,6.3-10.811,14-10.811h353.688C550.775,599.785,557.075,604.649,557.075,610.596z"/>
			</g>
			<g>
				<path fill="#FFFFFF" d="M543.567,610.599c0,3.242-2.541,5.867-5.664,5.867c-3.129,0-5.666-2.625-5.666-5.867
					s2.537-5.87,5.666-5.87C541.026,604.729,543.567,607.356,543.567,610.599z"/>
			</g>
		</g>
	</g>
	<rect x="437.038" y="599.999" fill="#66AA81" width="49.573" height="21.277"/>
	<g>
		<path fill="#D1D3D4" d="M525.445,653.354H92.561v29.603h432.884c14.059,0,18.619-6.624,18.619-14.8
			C544.063,659.977,539.503,653.354,525.445,653.354z"/>
		<path opacity="0.1" fill="#231F20" d="M525.445,653.354H92.561l3.836,2.98h426.051c14.057,0,18.621,6.624,18.621,14.802
			c0,3.192-0.71,6.139-2.394,8.558c3.892-2.714,5.389-6.87,5.389-11.537C544.063,659.977,539.503,653.354,525.445,653.354z"/>
		<path fill="#5DB6CE" d="M527.888,641.565H86.797v11.788h437.049c14.202,0,18.808,6.623,18.808,14.803
			c0,8.176-4.606,14.8-18.808,14.8H86.797v13.128h441.091c14.529,0,26.308-12.207,26.308-27.256
			C554.195,653.765,542.417,641.565,527.888,641.565z"/>
		<g opacity="0.05">
			<path d="M516.151,661.827c0,0-14.147,0.112-35.367,0.28c-10.61,0.045-22.989,0.097-36.252,0.152
				c-13.263,0.021-27.41,0.044-41.557,0.066c-14.146-0.021-28.293-0.044-41.557-0.065c-13.263-0.056-25.641-0.107-36.251-0.152
				c-21.22-0.169-35.367-0.281-35.367-0.281s14.147-0.112,35.367-0.281c10.61-0.045,22.989-0.097,36.251-0.152
				c13.263-0.021,27.41-0.044,41.557-0.065c14.147,0.022,28.294,0.045,41.557,0.066c13.263,0.056,25.642,0.107,36.252,0.152
				C502.004,661.715,516.151,661.827,516.151,661.827z"/>
		</g>
		<g opacity="0.05">
			<path d="M257.141,672.757c0,0-1.894,0.035-5.207,0.097c-3.314,0.045-8.048,0.107-13.728,0.184
				c-5.681,0.045-12.308,0.097-19.409,0.152c-7.101,0.021-14.675,0.044-22.249,0.066c-7.574-0.021-15.148-0.044-22.249-0.065
				c-7.101-0.056-13.728-0.107-19.409-0.152c-5.68-0.076-10.414-0.14-13.728-0.184c-3.313-0.063-5.207-0.098-5.207-0.098
				s1.894-0.035,5.207-0.098c3.314-0.044,8.048-0.107,13.728-0.184c5.681-0.045,12.308-0.097,19.409-0.152
				c7.101-0.021,14.675-0.044,22.249-0.065c7.574,0.022,15.148,0.045,22.249,0.066c7.101,0.056,13.728,0.107,19.409,0.152
				c5.68,0.076,10.414,0.139,13.728,0.184C255.248,672.722,257.141,672.757,257.141,672.757z"/>
		</g>
		<g opacity="0.05">
			<path d="M323.331,668.156c0,0-1.894,0.035-5.207,0.097c-3.314,0.044-8.047,0.107-13.728,0.184
				c-5.681,0.045-12.308,0.097-19.409,0.152c-7.101,0.021-14.675,0.044-22.249,0.066c-7.574-0.022-15.148-0.044-22.249-0.065
				c-7.101-0.056-13.728-0.107-19.409-0.152c-5.681-0.076-10.414-0.14-13.728-0.184c-3.313-0.063-5.207-0.098-5.207-0.098
				s1.894-0.035,5.207-0.098c3.314-0.044,8.047-0.107,13.728-0.184c5.681-0.045,12.308-0.097,19.409-0.152
				c7.101-0.021,14.675-0.043,22.249-0.065c7.574,0.022,15.148,0.045,22.249,0.066c7.101,0.056,13.728,0.107,19.409,0.152
				c5.681,0.076,10.414,0.14,13.728,0.184C321.438,668.121,323.331,668.156,323.331,668.156z"/>
		</g>
		<g opacity="0.05">
			<path d="M524.164,672.757c0,0-1.894,0.035-5.207,0.097c-3.314,0.045-8.048,0.107-13.729,0.184
				c-5.681,0.045-12.308,0.097-19.409,0.152c-7.101,0.021-14.675,0.044-22.25,0.066c-7.574-0.021-15.148-0.044-22.249-0.065
				c-7.101-0.056-13.728-0.107-19.409-0.152c-5.681-0.076-10.415-0.14-13.729-0.184c-3.313-0.063-5.207-0.098-5.207-0.098
				s1.894-0.035,5.207-0.098c3.314-0.044,8.048-0.107,13.729-0.184c5.681-0.045,12.308-0.097,19.409-0.152
				c7.101-0.021,14.675-0.044,22.249-0.065c7.574,0.022,15.148,0.045,22.25,0.066c7.101,0.056,13.728,0.107,19.409,0.152
				c5.681,0.076,10.415,0.139,13.729,0.184C522.271,672.722,524.164,672.757,524.164,672.757z"/>
		</g>
	</g>
	<rect x="140.302" y="573.113" fill="#1C75BC" width="353.605" height="19.22"/>
	<rect x="140.302" y="578.837" fill="#1C75BC" width="353.605" height="19.219"/>
	<rect x="140.302" y="575.967" fill="#5DB6CE" width="353.605" height="19.219"/>
	<rect x="174.914" y="582.836" opacity="0.2" fill="#FFFFFF" width="284.382" height="5.479"/>
	<path fill="#FFC764" d="M691.689,805.677v8.02c0,1.703-11.633,3.134-27.319,3.525c-2.769,0.068-5.667,0.105-8.647,0.105
		c-19.862,0-35.966-1.626-35.966-3.631v-8.02H691.689z"/>
	<path fill="#E5AF5A" d="M619.756,805.677v8.019c0,2.007,16.104,3.633,35.968,3.633c19.863,0,35.966-1.626,35.966-3.633v-8.019
		H619.756z"/>
	<ellipse opacity="0.11" fill="#FFFFFF" cx="655.723" cy="806.102" rx="35.967" ry="3.631"/>
	<ellipse fill="#FFC764" cx="655.723" cy="805.677" rx="35.967" ry="3.632"/>
	
		<ellipse opacity="0.41" fill="none" stroke="#FFFFFF" stroke-width="2" stroke-miterlimit="10" cx="655.723" cy="805.568" rx="32.514" ry="2.75"/>
	<path fill="#FFC764" d="M688.237,796.16v8.019c0,1.704-11.633,3.134-27.319,3.525c-2.77,0.069-5.667,0.106-8.647,0.106
		c-19.863,0-35.966-1.626-35.966-3.632v-8.019H688.237z"/>
	<path fill="#E5AF5A" d="M616.304,796.16v8.019c0,2.006,16.104,3.632,35.968,3.632c19.863,0,35.966-1.626,35.966-3.632v-8.019
		H616.304z"/>
	<ellipse opacity="0.11" fill="#FFFFFF" cx="652.271" cy="796.585" rx="35.967" ry="3.632"/>
	<ellipse fill="#FFC764" cx="652.271" cy="796.16" rx="35.967" ry="3.632"/>
	
		<ellipse opacity="0.41" fill="none" stroke="#FFFFFF" stroke-width="2" stroke-miterlimit="10" cx="652.271" cy="796.051" rx="32.515" ry="2.751"/>
	<path fill="#FFC764" d="M704.546,786.49v8.019c0,1.704-11.634,3.135-27.321,3.525c-2.769,0.069-5.665,0.106-8.646,0.106
		c-19.862,0-35.965-1.626-35.965-3.632v-8.019H704.546z"/>
	<path fill="#E5AF5A" d="M632.612,786.49v8.018c0,2.007,16.104,3.633,35.967,3.633s35.967-1.626,35.967-3.633v-8.018H632.612z"/>
	<ellipse opacity="0.11" fill="#FFFFFF" cx="668.579" cy="786.915" rx="35.967" ry="3.632"/>
	<ellipse fill="#FFC764" cx="668.579" cy="786.49" rx="35.967" ry="3.632"/>
	
		<ellipse opacity="0.41" fill="none" stroke="#FFFFFF" stroke-width="2" stroke-miterlimit="10" cx="668.579" cy="786.382" rx="32.514" ry="2.749"/>
	<path fill="#FFC764" d="M684.785,777.561v8.019c0,1.704-11.633,3.135-27.32,3.524c-2.77,0.07-5.666,0.106-8.646,0.106
		c-19.862,0-35.966-1.626-35.966-3.631v-8.019H684.785z"/>
	<path fill="#E5AF5A" d="M612.852,777.561v8.018c0,2.006,16.104,3.633,35.967,3.633c19.864,0,35.967-1.627,35.967-3.633v-8.018
		H612.852z"/>
	<ellipse opacity="0.11" fill="#FFFFFF" cx="648.818" cy="777.985" rx="35.967" ry="3.632"/>
	<ellipse fill="#FFC764" cx="648.818" cy="777.561" rx="35.967" ry="3.632"/>
	
		<ellipse opacity="0.41" fill="none" stroke="#FFFFFF" stroke-width="2" stroke-miterlimit="10" cx="648.818" cy="777.451" rx="32.515" ry="2.75"/>
	<path fill="#FFC764" d="M691.689,767.539v8.019c0,1.704-11.633,3.135-27.319,3.525c-2.769,0.069-5.667,0.105-8.647,0.105
		c-19.862,0-35.965-1.626-35.965-3.631v-8.019H691.689z"/>
	<path fill="#E5AF5A" d="M619.757,767.539v8.019c0,2.005,16.103,3.632,35.967,3.632c19.863,0,35.966-1.627,35.966-3.632v-8.019
		H619.757z"/>
	<ellipse opacity="0.11" fill="#FFFFFF" cx="655.723" cy="767.963" rx="35.966" ry="3.632"/>
	<ellipse fill="#FFC764" cx="655.723" cy="767.539" rx="35.966" ry="3.631"/>
	
		<ellipse opacity="0.41" fill="none" stroke="#FFFFFF" stroke-width="2" stroke-miterlimit="10" cx="655.723" cy="767.43" rx="32.514" ry="2.75"/>
	<path fill="#FFC764" d="M681.332,758.388v8.019c0,1.704-11.633,3.135-27.319,3.525c-2.77,0.069-5.667,0.105-8.646,0.105
		c-19.863,0-35.966-1.625-35.966-3.631v-8.019H681.332z"/>
	<path fill="#E5AF5A" d="M609.399,758.388v8.019c0,2.006,16.104,3.632,35.967,3.632c19.864,0,35.967-1.626,35.967-3.632v-8.019
		H609.399z"/>
	<ellipse opacity="0.11" fill="#FFFFFF" cx="645.366" cy="758.812" rx="35.967" ry="3.633"/>
	<ellipse fill="#FFC764" cx="645.366" cy="758.388" rx="35.967" ry="3.632"/>
	
		<ellipse opacity="0.41" fill="none" stroke="#FFFFFF" stroke-width="2" stroke-miterlimit="10" cx="645.366" cy="758.278" rx="32.514" ry="2.751"/>
	<ellipse opacity="0.07" fill="#231F20" cx="605.102" cy="812.08" rx="37.51" ry="38.948"/>
	<ellipse fill="#E2AF5D" cx="603.875" cy="812.08" rx="37.51" ry="38.948"/>
	<ellipse fill="#FFC764" cx="600.378" cy="813.134" rx="37.51" ry="38.948"/>
	<path opacity="0.38" fill="#FFFFFF" d="M600.379,776.209c-19.641,0-35.562,16.531-35.562,36.925s15.921,36.925,35.562,36.925
		c19.64,0,35.561-16.531,35.561-36.925S620.019,776.209,600.379,776.209z M600.379,848.721c-18.929,0-34.272-15.933-34.272-35.587
		c0-19.653,15.344-35.587,34.272-35.587c18.928,0,34.271,15.934,34.271,35.587C634.65,832.788,619.307,848.721,600.379,848.721z"/>
	<path opacity="0.11" fill="#FFFFFF" d="M567.514,794.349c-2.96,5.571-4.646,11.974-4.646,18.785
		c0,21.511,16.794,38.948,37.511,38.948c9.7,0,18.541-3.824,25.199-10.099L567.514,794.349z"/>
	<ellipse fill="#E2AF5D" cx="600.378" cy="813.134" rx="25.602" ry="26.585"/>
	<ellipse fill="#FFC764" cx="601.341" cy="813.134" rx="24.08" ry="25.004"/>
	<text transform="matrix(0.9631 0 0 1 590.9395 824.4766)" fill="#E2AF5D" font-family="'OpenSans-Extrabold'" font-size="34.5925">$</text>
	<path opacity="0.11" fill="#FFFFFF" d="M580.883,797.177c-3.286,4.414-5.241,9.949-5.241,15.956
		c0,14.426,11.263,26.121,25.153,26.121c8.049,0,15.213-3.928,19.813-10.035L580.883,797.177z"/>
	<path fill="#F1F2F2" d="M889.324,514.353l89.718,145.666c1.083,1.75-0.366,4.676-3.322,6.496c-2.94,1.804-6.208,1.788-7.297,0.036
		l-89.69-145.666c-1.11-1.793,0.367-4.675,3.312-6.495C884.99,512.575,888.232,512.559,889.324,514.353z"/>
	<g>
		<polygon fill="#EA91A9" points="883.616,528.828 886.02,532.734 893.233,520.672 890.815,516.775 		"/>
		<polygon fill="#EA91A9" points="894.498,546.494 901.701,534.437 899.303,530.524 892.094,542.587 		"/>
		<polygon fill="#EA91A9" points="902.998,560.275 910.196,548.223 907.783,544.312 900.581,556.367 		"/>
		<polygon fill="#EA91A9" points="911.477,574.066 918.69,561.999 916.277,558.103 909.063,570.165 		"/>
		<polygon fill="#EA91A9" points="919.952,587.831 927.161,575.764 924.742,571.862 917.543,583.92 		"/>
		<polygon fill="#EA91A9" points="928.449,601.607 935.654,589.55 933.24,585.644 926.028,597.7 		"/>
		<polygon fill="#EA91A9" points="936.908,615.367 944.125,603.32 941.715,599.403 934.51,611.465 		"/>
		<polygon fill="#EA91A9" points="945.411,629.153 952.611,617.112 950.213,613.188 942.996,625.246 		"/>
		<polygon fill="#EA91A9" points="953.895,642.955 961.101,630.893 958.693,626.986 951.487,639.027 		"/>
		<polygon fill="#EA91A9" points="962.362,656.704 969.573,644.637 967.169,640.74 959.96,652.803 		"/>
	</g>
	<polygon fill="#F1F2F2" points="1013.19,597.684 944.267,597.684 875.33,597.684 867.16,618.707 944.267,618.707 1021.37,618.707 	
		"/>
	<polygon fill="#F1F2F2" points="1021.356,629.212 1020.871,634.475 1001.521,848.869 944.25,852.894 887.023,848.869 
		867.633,634.475 867.143,629.212 	"/>
	<polygon opacity="0.08" fill="#231F20" points="1021.356,629.212 1020.871,634.475 867.633,634.475 867.143,629.212 	"/>
	<polygon fill="#E57693" points="871.905,681.742 1016.624,681.742 1009.483,760.643 879.045,760.643 	"/>
	<path fill="#E57693" d="M1026.92,623.97c0,2.904-2.354,5.258-5.257,5.258H866.867c-2.9,0-5.258-2.354-5.258-5.258l0,0
		c0-2.903,2.357-5.263,5.258-5.263h154.796C1024.566,618.707,1026.92,621.066,1026.92,623.97L1026.92,623.97z"/>
	<g>
		<path fill="#F1F2F2" d="M981.243,727.733c-3.518-9.97-12.551-7.365-14.92-6.485c-0.1-2.434-0.1-5.705-0.104-5.732v-0.187
			l-0.106-0.145c-4.649-6.97-15.89-17.383-16.37-17.832l-0.066-0.058l-0.086-0.043c-0.907-0.405-1.248-1.158-1.352-1.921
			l-1.233-0.204c0.083,1.244,0.571,2.504,1.987,3.198c0.95,0.886,11.561,10.803,15.999,17.367c0,0.742,0.029,3.432,0.12,5.572
			c-2.532-0.769-11.889-2.851-14.653,7.926c-0.283,1.132-0.374,5.401,0.533,7.51c1.794,4.169,6.082,10.434,15.716,10.904
			c9.911-1.015,13.558-7.916,14.873-12.132C982.19,733.524,981.705,728.993,981.243,727.733z"/>
		<path fill="#F1F2F2" d="M929.269,713.584c0.051-0.149,0.099-0.277,0.125-0.368c0.668-1.024,10.019-10.898,17.014-18.189
			l-1.468-0.245c-1.298,1.366-2.704,2.828-4.121,4.312c-12.66-4.034-17.736,3.385-17.736,3.385c6.731,2.642,11.22,1.916,14.06,0.496
			c-4.708,4.979-8.748,9.351-8.888,9.842c-0.036,0.075-0.074,0.192-0.136,0.368c-0.491,1.383-1.825,5.183-1.241,8.854
			c-3.045-0.773-10.584-1.644-12.945,7.574c-0.272,1.057-0.35,5.022,0.493,6.991c1.674,3.886,5.663,9.72,14.641,10.146
			c9.218-0.944,12.623-7.359,13.851-11.305c0.561-1.798,0.102-6.02-0.307-7.188c-3.686-10.408-13.811-6.106-14.402-5.834
			C927.393,718.905,928.77,714.956,929.269,713.584z"/>
	</g>
	<path fill="#A7A9AC" d="M809.733,583.939L791.97,837.023c-0.11,1.557-1.46,2.726-3.012,2.616l-15.009-1.054
		c-1.553-0.108-2.726-1.454-2.616-3.011l17.764-253.084c0.015-0.217,0.054-0.426,0.119-0.628l20.487,1.438
		C809.74,583.51,809.748,583.723,809.733,583.939z"/>
	<path fill="#808285" d="M780.047,839.015l-6.098-0.429c-1.553-0.108-2.726-1.454-2.616-3.011l17.764-253.084
		c0.015-0.217,0.054-0.426,0.119-0.628l6.098,0.428c-0.049,0.152-0.083,0.31-0.104,0.468c-0.008,0.051-0.013,0.107-0.016,0.16
		l-17.764,253.084C777.32,837.561,778.495,838.905,780.047,839.015z"/>
	<path fill="#939598" d="M802.464,583.429L784.7,836.513c-0.11,1.557-0.643,2.783-1.188,2.744l-5.291-0.37
		c-0.544-0.038-0.901-1.326-0.791-2.884l17.764-253.084c0.003-0.053,0.008-0.109,0.016-0.16c0.012-0.159,0.031-0.317,0.052-0.473
		l7.224,0.507C802.484,583.001,802.479,583.213,802.464,583.429z"/>
	<path fill="#EAC9A9" d="M789.207,581.863c0,0,10.834-24.358,12.009-24.306c1.175,0.052,8.495,25.746,8.495,25.746L789.207,581.863z
		"/>
	<path fill="#6D6E71" d="M804.982,567.485l-8.873-0.622c2.396-5.003,4.613-9.324,5.106-9.305
		C801.719,557.595,803.31,562.188,804.982,567.485z"/>
	<path opacity="0.07" fill="#231F20" d="M801.32,557.618c-1.569,3.892-5.375,20.833-6.223,24.657l-5.891-0.414
		c0,0,10.834-24.356,12.009-24.303C801.249,557.562,801.28,557.582,801.32,557.618z"/>
	<path fill="#BCBEC0" d="M749.688,689.353c0,1.855-1.504,3.36-3.359,3.36l0,0c-1.856,0-3.36-1.505-3.36-3.36v-86.46
		c0-1.855,1.504-3.36,3.36-3.36l0,0c1.855,0,3.359,1.505,3.359,3.36V689.353z"/>
	<path fill="#6D6E71" d="M752.376,689.353c0,1.855-1.504,3.36-3.36,3.36l0,0c-1.855,0-3.359-1.505-3.359-3.36v-86.46
		c0-1.855,1.504-3.36,3.359-3.36l0,0c1.856,0,3.36,1.505,3.36,3.36V689.353z"/>
	<path fill="#A7A9AC" d="M748.344,632.68v187.304c0,14.452,5.717,26.167,12.768,26.167c7.052,0,12.769-11.715,12.769-26.167V632.68
		H748.344z"/>
	<path fill="#BCBEC0" d="M773.88,681.288v-91.392c0-7.052-5.717-12.769-12.769-12.769c-7.051,0-12.768,5.717-12.768,12.769v91.392
		H773.88z"/>
	<path fill="#F9D687" d="M773.88,589.896v8.965h-25.536v-8.965c0-7.057,5.713-12.769,12.768-12.769c3.521,0,6.72,1.426,9.032,3.736
		C772.455,583.176,773.88,586.375,773.88,589.896z"/>
	<rect x="748.344" y="673.225" fill="#F9D687" width="25.536" height="9.407"/>
	<path fill="#BCBEC0" d="M827.159,616.06c-4.46-0.516-9.295,9.628-10.802,22.656L795.78,816.702l-3.719,32.166l16.148,1.867
		l3.719-32.167l20.578-177.986C834.013,627.555,831.619,616.575,827.159,616.06z"/>
	<path fill="#A7A9AC" d="M820.871,637.824c1.141-9.872,4.169-18.098,7.497-21.342c-0.383-0.23-0.786-0.374-1.209-0.423
		c-4.46-0.516-9.295,9.628-10.802,22.656L795.78,816.702l-3.719,32.166l4.352,0.503l3.744-32.379L820.871,637.824z"/>
	
		<rect x="816.633" y="635.731" transform="matrix(0.9934 0.1148 -0.1148 0.9934 78.5597 -90.4738)" opacity="0.36" fill="#231F20" width="16.256" height="2.153"/>
	<path fill="#939598" d="M833.986,557.013c-1.469-0.17-8.493,2.682-9.008,7.141l-7.044,60.923l-1.272,11.011l16.147,1.866
		l1.273-11.01l7.044-60.924C841.643,561.562,835.678,557.208,833.986,557.013z"/>
	<path fill="#808285" d="M829.24,564.646c0.377-3.258,4.22-5.649,6.84-6.641c-0.868-0.578-1.638-0.94-2.094-0.993
		c-1.469-0.17-8.493,2.682-9.008,7.141l-7.044,60.923l-1.272,11.011l4.263,0.492l1.272-11.01L829.24,564.646z"/>
	<path fill="#939598" d="M841.799,567.544c-4.657-0.838-3.205,1.552-3.634,3.186c1.864,0.246,3.129-0.258,2.859,3.515l-6.467,55.936
		c1.892,0.218,3.603-1.138,3.82-3.029l6.45-55.785C845.047,569.474,843.673,567.881,841.799,567.544z"/>
	
		<rect x="816.94" y="632.851" transform="matrix(0.9934 0.1148 -0.1148 0.9934 78.256 -90.5268)" fill="#F9D687" width="16.256" height="2.586"/>
	
		<rect x="816.98" y="632.164" transform="matrix(0.9934 0.1147 -0.1147 0.9934 78.0461 -89.7551)" fill="#EAC781" width="4.292" height="2.586"/>
	
		<rect x="730.833" y="834.499" transform="matrix(-0.9872 0.1592 -0.1592 -0.9872 1606.7334 1550.196)" fill="#6D6E71" width="20.874" height="9.921"/>
	<path fill="#5B9EC4" d="M727.914,838.652c0.357,2.218,2.473,3.721,4.724,3.358l17.308-2.79c2.251-0.363,3.785-2.456,3.429-4.674
		l-35.825-222.195c-0.357-2.218-2.472-3.722-4.724-3.358l-17.308,2.79c-2.252,0.363-3.786,2.455-3.429,4.673L727.914,838.652z"/>
	<path fill="#808285" d="M689.783,621.725l6.454-1.041c2.252-0.362,4.366,1.141,4.724,3.358l0.202,1.251l-9.172,1.479l8.054,49.948
		l-1.359,0.218c-2.252,0.363-4.366-1.142-4.724-3.358l-7.607-47.184C685.997,624.18,687.531,622.087,689.783,621.725z"/>
	<path fill="#4A8CA8" d="M722.77,644.73l30.604,189.816c0.356,2.218-1.178,4.311-3.429,4.674l-6.067,0.978l-31.252-193.832
		L722.77,644.73z"/>
	<path opacity="0.29" fill="#231F20" d="M698.149,654.048l-5.413-33.576c-0.357-2.217,1.178-4.31,3.429-4.673l17.308-2.79
		c2.251-0.363,4.366,1.141,4.724,3.358l5.413,33.575L698.149,654.048z"/>
	<path fill="#448EC1" d="M697.502,650.031l-5.413-33.575c-0.357-2.218,1.177-4.31,3.429-4.673l17.308-2.79
		c2.252-0.363,4.366,1.141,4.724,3.358l5.413,33.575L697.502,650.031z"/>
	<path fill="#387DA3" d="M706.633,609.991l6.192-0.998c2.252-0.363,4.366,1.141,4.724,3.358l5.413,33.575l-10.144,1.636
		l-5.895-36.564C706.866,610.643,706.761,610.31,706.633,609.991z"/>
	<path fill="#6D6E71" d="M833.41,687.627c0.16,0,0.315,0.015,0.47,0.034v-7.746c-1.768-0.231-3.135-1.74-3.135-3.57
		c0-1.244,0.63-2.34,1.587-2.988h-4.192c0.958,0.648,1.588,1.744,1.588,2.988c0,1.989-1.615,3.604-3.605,3.604
		c-1.991,0-3.604-1.615-3.604-3.604c0-1.244,0.63-2.34,1.587-2.988h-4.193c0.958,0.648,1.588,1.744,1.588,2.988
		c0,1.989-1.614,3.604-3.604,3.604c-1.991,0-3.605-1.615-3.605-3.604c0-1.244,0.63-2.34,1.587-2.988h-4.192
		c0.958,0.648,1.588,1.744,1.588,2.988c0,1.989-1.615,3.604-3.604,3.604c-1.992,0-3.605-1.615-3.605-3.604
		c0-1.244,0.629-2.34,1.586-2.988h-4.191c0.957,0.648,1.587,1.744,1.587,2.988c0,1.989-1.614,3.604-3.605,3.604
		c-1.99,0-3.604-1.615-3.604-3.604c0-1.244,0.63-2.34,1.587-2.988h-4.192c0.958,0.648,1.587,1.744,1.587,2.988
		c0,1.989-1.614,3.604-3.604,3.604c-1.991,0-3.604-1.615-3.604-3.604c0-1.244,0.63-2.34,1.587-2.988h-4.193
		c0.958,0.648,1.588,1.744,1.588,2.988c0,1.989-1.614,3.604-3.605,3.604c-1.99,0-3.604-1.615-3.604-3.604
		c0-1.244,0.629-2.34,1.587-2.988h-4.192c0.958,0.648,1.587,1.744,1.587,2.988c0,1.989-1.614,3.604-3.604,3.604
		c-1.991,0-3.604-1.615-3.604-3.604c0-1.244,0.629-2.34,1.587-2.988h-4.193c0.958,0.648,1.587,1.744,1.587,2.988
		c0,1.989-1.614,3.604-3.604,3.604s-3.604-1.615-3.604-3.604c0-1.244,0.629-2.34,1.587-2.988h-4.192
		c0.958,0.648,1.587,1.744,1.587,2.988c0,1.989-1.614,3.604-3.604,3.604c-1.991,0-3.605-1.615-3.605-3.604
		c0-1.244,0.63-2.34,1.587-2.988h-4.192c0.958,0.648,1.587,1.744,1.587,2.988c0,1.989-1.613,3.604-3.604,3.604
		c-1.99,0-3.605-1.615-3.605-3.604c0-1.244,0.63-2.34,1.588-2.988h-4.192c0.957,0.648,1.587,1.744,1.587,2.988
		c0,1.989-1.614,3.604-3.604,3.604c-1.991,0-3.605-1.615-3.605-3.604c0-1.244,0.63-2.34,1.588-2.988h-4.194
		c0.958,0.648,1.589,1.744,1.589,2.988c0,1.989-1.615,3.604-3.605,3.604c-1.991,0-3.605-1.615-3.605-3.604
		c0-1.244,0.63-2.34,1.588-2.988h-4.192c0.957,0.648,1.587,1.744,1.587,2.988c0,1.989-1.615,3.604-3.604,3.604
		c-1.992,0-3.605-1.615-3.605-3.604c0-1.244,0.63-2.34,1.587-2.988h-4.192c0.957,0.648,1.587,1.744,1.587,2.988
		c0,1.989-1.614,3.604-3.604,3.604c-1.991,0-3.605-1.615-3.605-3.604c0-1.244,0.63-2.34,1.587-2.988h-4.191
		c0.957,0.648,1.586,1.744,1.586,2.988c0,1.989-1.614,3.604-3.604,3.604c-1.991,0-3.605-1.615-3.605-3.604
		c0-1.244,0.63-2.34,1.588-2.988h-4.193c0.957,0.648,1.587,1.744,1.587,2.988c0,1.989-1.614,3.604-3.604,3.604
		s-3.605-1.615-3.605-3.604c0-1.244,0.63-2.34,1.587-2.988h-4.192c0.958,0.648,1.588,1.744,1.588,2.988
		c0,1.989-1.615,3.604-3.605,3.604s-3.604-1.615-3.604-3.604c0-1.244,0.629-2.34,1.587-2.988h-1.851v6.658
		c1.667,0.316,2.928,1.779,2.928,3.538c0,1.76-1.261,3.224-2.928,3.54v2.042c0.654-0.911,1.72-1.508,2.928-1.508
		c1.99,0,3.605,1.614,3.605,3.604c0,1.992-1.615,3.605-3.605,3.605c-1.208,0-2.273-0.596-2.928-1.508v2.147
		c0.087-0.007,0.175-0.013,0.264-0.013c1.99,0,3.604,1.614,3.604,3.604c0,1.991-1.613,3.604-3.604,3.604
		c-0.089,0-0.177-0.007-0.264-0.014v6.91v0.408v7.019v3.739v0.865v3.178v0.166h1.206c1.452,0.465,2.506,1.825,2.506,3.433
		c0,1.991-1.614,3.604-3.605,3.604c-0.036,0-0.07-0.004-0.106-0.005v8.467c0.332-0.101,0.683-0.156,1.048-0.156
		c1.989,0,3.604,1.614,3.604,3.605c0,1.99-1.614,3.604-3.604,3.604c-0.365,0-0.716-0.056-1.048-0.156v1.81
		c0.364,0.563,0.577,1.231,0.577,1.952c0,0.719-0.213,1.388-0.577,1.951v2.028c0.481-0.238,1.021-0.376,1.596-0.376
		c1.99,0,3.605,1.614,3.605,3.605c0,1.99-1.615,3.604-3.605,3.604c-0.574,0-1.114-0.137-1.596-0.375v2.264
		c0.647,0.652,1.047,1.549,1.047,2.54c0,0.99-0.399,1.888-1.047,2.539v1.247c0.354-0.116,0.731-0.182,1.126-0.182
		c1.989,0,3.604,1.613,3.604,3.605c0,1.99-1.615,3.604-3.604,3.604c-0.395,0-0.771-0.065-1.126-0.183v3.4
		c0.066,0.274,0.106,0.56,0.106,0.855s-0.04,0.581-0.106,0.855v4.029c0.585-0.41,1.297-0.653,2.065-0.653
		c1.99,0,3.605,1.614,3.605,3.604c0,1.625-1.075,2.997-2.552,3.447h-2.101c-0.367-0.111-0.711-0.279-1.019-0.495v0.495v0.77v5.985
		v1.739v4.955v1.927v0.141c1.092,0.62,1.831,1.791,1.831,3.137c0,1.344-0.739,2.516-1.831,3.136v1.02
		c0.554-0.348,1.207-0.552,1.909-0.552c1.991,0,3.604,1.614,3.604,3.604c0,1.991-1.613,3.605-3.604,3.605
		c-0.702,0-1.355-0.204-1.909-0.551v2.258c0.553,0.634,0.891,1.459,0.891,2.366c0,0.908-0.338,1.734-0.891,2.367v3.268
		c0.659-0.853,1.689-1.402,2.85-1.402c1.991,0,3.604,1.613,3.604,3.604c0,1.99-1.613,3.605-3.604,3.605
		c-1.16,0-2.19-0.551-2.85-1.403v1.62c1.387,0.503,2.379,1.828,2.379,3.387c0,1.56-0.992,2.885-2.379,3.387v2.628
		c0.493-1.402,1.826-2.41,3.397-2.41c1.991,0,3.604,1.614,3.604,3.605s-1.613,3.604-3.604,3.604h8.229
		c-1.991,0-3.604-1.613-3.604-3.604s1.613-3.605,3.604-3.605c1.99,0,3.604,1.614,3.604,3.605s-1.614,3.604-3.604,3.604h8.228
		c-1.991,0-3.604-1.613-3.604-3.604s1.613-3.605,3.604-3.605s3.605,1.614,3.605,3.605s-1.614,3.604-3.605,3.604h8.228
		c-1.99,0-3.604-1.613-3.604-3.604s1.613-3.605,3.604-3.605c1.992,0,3.605,1.614,3.605,3.605s-1.613,3.604-3.605,3.604h8.229
		c-1.991,0-3.604-1.613-3.604-3.604s1.613-3.605,3.604-3.605c1.99,0,3.604,1.614,3.604,3.605s-1.613,3.604-3.604,3.604h8.228
		c-1.991,0-3.605-1.613-3.605-3.604s1.614-3.605,3.605-3.605s3.604,1.614,3.604,3.605s-1.613,3.604-3.604,3.604h8.229
		c-1.991,0-3.604-1.613-3.604-3.604s1.613-3.605,3.604-3.605c1.99,0,3.604,1.614,3.604,3.605s-1.614,3.604-3.604,3.604h8.228
		c-1.99,0-3.604-1.613-3.604-3.604s1.614-3.605,3.604-3.605s3.604,1.614,3.604,3.605s-1.614,3.604-3.604,3.604h8.229
		c-1.991,0-3.605-1.613-3.605-3.604s1.614-3.605,3.605-3.605c1.99,0,3.604,1.614,3.604,3.605s-1.614,3.604-3.604,3.604h8.228
		c-1.99,0-3.604-1.613-3.604-3.604s1.614-3.605,3.604-3.605s3.605,1.614,3.605,3.605s-1.615,3.604-3.605,3.604h8.229
		c-1.991,0-3.604-1.613-3.604-3.604s1.613-3.605,3.604-3.605c1.99,0,3.605,1.614,3.605,3.605s-1.615,3.604-3.605,3.604h8.228
		c-1.99,0-3.604-1.613-3.604-3.604s1.614-3.605,3.604-3.605c1.991,0,3.605,1.614,3.605,3.605s-1.614,3.604-3.605,3.604h8.229
		c-1.991,0-3.604-1.613-3.604-3.604s1.613-3.605,3.604-3.605s3.604,1.614,3.604,3.605s-1.613,3.604-3.604,3.604h8.228
		c-1.99,0-3.604-1.613-3.604-3.604s1.614-3.605,3.604-3.605c1.991,0,3.605,1.614,3.605,3.605s-1.614,3.604-3.605,3.604h8.229
		c-1.99,0-3.604-1.613-3.604-3.604s1.614-3.605,3.604-3.605s3.605,1.614,3.605,3.605s-1.615,3.604-3.605,3.604h8.229
		c-1.991,0-3.605-1.613-3.605-3.604s1.614-3.605,3.605-3.605c1.99,0,3.604,1.614,3.604,3.605s-1.614,3.604-3.604,3.604h8.229
		c-1.992,0-3.605-1.613-3.605-3.604s1.613-3.605,3.605-3.605c1.99,0,3.604,1.614,3.604,3.605s-1.613,3.604-3.604,3.604h8.228
		c-1.991,0-3.605-1.613-3.605-3.604s1.614-3.605,3.605-3.605v-7.255c-0.179,0.027-0.361,0.047-0.549,0.047
		c-1.99,0-3.604-1.615-3.604-3.605c0-1.991,1.614-3.604,3.604-3.604c0.188,0,0.37,0.019,0.549,0.046v-1.364
		c-0.901-0.655-1.488-1.714-1.488-2.914c0-1.198,0.587-2.258,1.488-2.913v-1.484c-0.454,0.206-0.958,0.324-1.488,0.324
		c-1.991,0-3.604-1.614-3.604-3.605c0-1.99,1.613-3.604,3.604-3.604c0.53,0,1.034,0.119,1.488,0.325v-2.025
		c-0.346-0.553-0.549-1.204-0.549-1.903c0-0.7,0.203-1.352,0.549-1.905v-1.372v-0.888v-7.033v-1.452v-4.48v-1.522v-0.1
		c-0.094,0.038-0.19,0.07-0.288,0.1h-2.098c-1.477-0.45-2.552-1.822-2.552-3.447c0-1.99,1.614-3.604,3.604-3.604
		c0.473,0,0.92,0.093,1.333,0.258v-1.142c-1.331-0.53-2.272-1.828-2.272-3.348s0.941-2.817,2.272-3.347v-1.535
		c-0.62,0.505-1.411,0.809-2.272,0.809c-1.991,0-3.604-1.614-3.604-3.604c0-1.992,1.613-3.605,3.604-3.605
		c0.861,0,1.652,0.303,2.272,0.808v-1.616c-0.813-0.66-1.333-1.667-1.333-2.796s0.521-2.136,1.333-2.797v-2.116
		c-0.531,0.306-1.146,0.484-1.803,0.484c-1.99,0-3.604-1.613-3.604-3.604c0-1.991,1.614-3.605,3.604-3.605
		c0.657,0,1.271,0.179,1.803,0.486v-0.973c-1.076-0.623-1.803-1.785-1.803-3.117c0-1.334,0.727-2.496,1.803-3.119v-1.362
		c-0.632,0.545-1.452,0.876-2.351,0.876c-1.991,0-3.605-1.614-3.605-3.604c0-1.991,1.614-3.605,3.605-3.605
		c0.898,0,1.719,0.332,2.351,0.876v-1.519c-1.844-0.159-3.291-1.704-3.291-3.589c0-1.884,1.447-3.429,3.291-3.588v-2.624
		c-0.563,1.259-1.824,2.138-3.291,2.138c-1.991,0-3.604-1.613-3.604-3.604c0-1.607,1.052-2.968,2.505-3.433h2.197
		c0.979,0.314,1.777,1.035,2.193,1.966v-1.966v-0.4v-6.752v-1.796v-5.018v-1.243v-0.166h-0.442
		c-1.262-0.562-2.144-1.822-2.144-3.291c0-1.637,1.092-3.017,2.586-3.457v-1.976c-0.62,1.09-1.79,1.827-3.135,1.827
		c-1.99,0-3.604-1.613-3.604-3.604c0-1.99,1.614-3.604,3.604-3.604c1.345,0,2.515,0.737,3.135,1.828v-2.489
		c-0.154,0.02-0.31,0.034-0.47,0.034c-1.991,0-3.605-1.613-3.605-3.605C829.805,689.241,831.419,687.627,833.41,687.627z
		 M821.577,679.949c1.99,0,3.604,1.613,3.604,3.604c0,1.991-1.614,3.605-3.604,3.605c-1.991,0-3.604-1.614-3.604-3.605
		C817.973,681.563,819.586,679.949,821.577,679.949z M820.559,691.231c0,1.992-1.614,3.605-3.604,3.605
		c-1.991,0-3.605-1.613-3.605-3.605c0-1.99,1.614-3.604,3.605-3.604C818.944,687.627,820.559,689.241,820.559,691.231z
		 M817.737,728.377c0,1.991-1.614,3.604-3.604,3.604c-1.991,0-3.605-1.613-3.605-3.604c0-1.607,1.053-2.968,2.506-3.433h2.198
		C816.685,725.409,817.737,726.77,817.737,728.377z M705.521,789.067c0-1.99,1.613-3.604,3.605-3.604
		c1.99,0,3.604,1.614,3.604,3.604c0,1.625-1.075,2.997-2.551,3.447h-2.108C706.596,792.064,705.521,790.692,705.521,789.067z
		 M699.645,706.278c0-1.991,1.613-3.605,3.604-3.605c1.99,0,3.605,1.614,3.605,3.605c0,1.467-0.88,2.729-2.14,3.291h-2.932
		C700.523,709.007,699.645,707.745,699.645,706.278z M809.51,728.377c0,1.991-1.614,3.604-3.605,3.604
		c-1.99,0-3.604-1.613-3.604-3.604c0-1.607,1.053-2.968,2.506-3.433h2.198C808.456,725.409,809.51,726.77,809.51,728.377z
		 M815.857,811.168c0,1.989-1.615,3.604-3.605,3.604c-1.991,0-3.604-1.614-3.604-3.604c0-1.456,0.865-2.708,2.108-3.277h2.992
		C814.991,808.46,815.857,809.712,815.857,811.168z M807.629,811.168c0,1.989-1.614,3.604-3.604,3.604
		c-1.991,0-3.604-1.614-3.604-3.604c0-1.456,0.864-2.708,2.107-3.277h2.992C806.763,808.46,807.629,809.712,807.629,811.168z
		 M799.4,811.168c0,1.989-1.614,3.604-3.604,3.604c-1.991,0-3.604-1.614-3.604-3.604c0-1.456,0.865-2.708,2.108-3.277h2.992
		C798.535,808.46,799.4,809.712,799.4,811.168z M791.173,811.168c0,1.989-1.614,3.604-3.605,3.604c-1.99,0-3.604-1.614-3.604-3.604
		c0-1.456,0.866-2.708,2.109-3.277h2.992C790.307,808.46,791.173,809.712,791.173,811.168z M782.944,811.168
		c0,1.989-1.614,3.604-3.604,3.604c-1.991,0-3.605-1.614-3.605-3.604c0-1.456,0.866-2.708,2.109-3.277h2.992
		C782.078,808.46,782.944,809.712,782.944,811.168z M774.716,811.168c0,1.989-1.613,3.604-3.604,3.604
		c-1.99,0-3.604-1.614-3.604-3.604c0-1.456,0.865-2.708,2.108-3.277h2.992C773.851,808.46,774.716,809.712,774.716,811.168z
		 M766.488,811.168c0,1.989-1.614,3.604-3.604,3.604c-1.991,0-3.604-1.614-3.604-3.604c0-1.456,0.865-2.708,2.108-3.277h2.992
		C765.623,808.46,766.488,809.712,766.488,811.168z M758.261,811.168c0,1.989-1.615,3.604-3.605,3.604s-3.604-1.614-3.604-3.604
		c0-1.456,0.865-2.708,2.108-3.277h2.992C757.395,808.46,758.261,809.712,758.261,811.168z M750.032,811.168
		c0,1.989-1.615,3.604-3.604,3.604c-1.991,0-3.605-1.614-3.605-3.604c0-1.456,0.866-2.708,2.109-3.277h2.992
		C749.166,808.46,750.032,809.712,750.032,811.168z M741.805,811.168c0,1.989-1.615,3.604-3.605,3.604s-3.605-1.614-3.605-3.604
		c0-1.456,0.866-2.708,2.108-3.277h2.993C740.938,808.46,741.805,809.712,741.805,811.168z M733.576,811.168
		c0,1.989-1.614,3.604-3.605,3.604c-1.99,0-3.604-1.614-3.604-3.604c0-1.456,0.866-2.708,2.108-3.277h2.992
		C732.71,808.46,733.576,809.712,733.576,811.168z M725.349,811.168c0,1.989-1.615,3.604-3.605,3.604
		c-1.991,0-3.604-1.614-3.604-3.604c0-1.456,0.864-2.708,2.108-3.277h2.992C724.482,808.46,725.349,809.712,725.349,811.168z
		 M717.12,811.168c0,1.989-1.615,3.604-3.604,3.604c-1.991,0-3.605-1.614-3.605-3.604c0-1.456,0.865-2.708,2.108-3.277h2.992
		C716.254,808.46,717.12,809.712,717.12,811.168z M713.75,789.067c0-1.99,1.613-3.604,3.604-3.604c1.991,0,3.605,1.614,3.605,3.604
		c0,1.625-1.074,2.997-2.551,3.447h-2.107C714.824,792.064,713.75,790.692,713.75,789.067z M801.282,728.377
		c0,1.991-1.615,3.604-3.605,3.604c-1.991,0-3.604-1.613-3.604-3.604c0-1.607,1.053-2.968,2.505-3.433h2.198
		C800.229,725.409,801.282,726.77,801.282,728.377z M721.979,789.067c0-1.99,1.613-3.604,3.604-3.604
		c1.99,0,3.604,1.614,3.604,3.604c0,1.625-1.074,2.997-2.551,3.447h-2.107C723.052,792.064,721.979,790.692,721.979,789.067z
		 M793.054,728.377c0,1.991-1.615,3.604-3.605,3.604c-1.991,0-3.604-1.613-3.604-3.604c0-1.607,1.053-2.968,2.506-3.433h2.197
		C792,725.409,793.054,726.77,793.054,728.377z M730.205,789.067c0-1.99,1.615-3.604,3.605-3.604s3.604,1.614,3.604,3.604
		c0,1.625-1.075,2.997-2.551,3.447h-2.107C731.28,792.064,730.205,790.692,730.205,789.067z M782.319,724.944
		c1.453,0.465,2.506,1.825,2.506,3.433c0,1.991-1.614,3.604-3.604,3.604c-1.991,0-3.605-1.613-3.605-3.604
		c0-1.607,1.053-2.968,2.506-3.433H782.319z M740.984,792.515c-1.476-0.45-2.55-1.822-2.55-3.447c0-1.99,1.613-3.604,3.604-3.604
		c1.99,0,3.604,1.614,3.604,3.604c0,1.625-1.074,2.997-2.551,3.447H740.984z M779.104,758.312c0-1.991,1.614-3.605,3.605-3.605
		s3.604,1.614,3.604,3.605c0,1.99-1.613,3.604-3.604,3.604S779.104,760.302,779.104,758.312z M782.16,766.344
		c0,1.99-1.613,3.604-3.604,3.604s-3.604-1.614-3.604-3.604c0-1.991,1.613-3.604,3.604-3.604S782.16,764.353,782.16,766.344z
		 M778.086,754.706c-1.991,0-3.604-1.613-3.604-3.604c0-1.992,1.613-3.605,3.604-3.605c1.99,0,3.605,1.613,3.605,3.605
		C781.691,753.093,780.076,754.706,778.086,754.706z M778.086,758.312c0,1.99-1.615,3.604-3.604,3.604
		c-1.991,0-3.605-1.613-3.605-3.604c0-1.991,1.614-3.605,3.605-3.605C776.471,754.706,778.086,756.32,778.086,758.312z
		 M773.933,766.344c0,1.99-1.614,3.604-3.604,3.604c-1.991,0-3.605-1.614-3.605-3.604c0-1.991,1.614-3.604,3.605-3.604
		C772.318,762.739,773.933,764.353,773.933,766.344z M769.857,754.706c-1.99,0-3.604-1.613-3.604-3.604
		c0-1.992,1.614-3.605,3.604-3.605c1.991,0,3.604,1.613,3.604,3.605C773.462,753.093,771.849,754.706,769.857,754.706z
		 M769.857,758.312c0,1.99-1.614,3.604-3.604,3.604s-3.605-1.613-3.605-3.604c0-1.991,1.615-3.605,3.605-3.605
		S769.857,756.32,769.857,758.312z M765.705,766.344c0,1.99-1.615,3.604-3.605,3.604c-1.991,0-3.604-1.614-3.604-3.604
		c0-1.991,1.613-3.604,3.604-3.604C764.09,762.739,765.705,764.353,765.705,766.344z M761.63,754.706
		c-1.991,0-3.604-1.613-3.604-3.604c0-1.992,1.613-3.605,3.604-3.605c1.99,0,3.604,1.613,3.604,3.605
		C765.234,753.093,763.62,754.706,761.63,754.706z M761.63,758.312c0,1.99-1.614,3.604-3.604,3.604
		c-1.991,0-3.605-1.613-3.605-3.604c0-1.991,1.614-3.605,3.605-3.605C760.016,754.706,761.63,756.32,761.63,758.312z
		 M757.477,766.344c0,1.99-1.614,3.604-3.605,3.604c-1.99,0-3.604-1.614-3.604-3.604c0-1.991,1.614-3.604,3.604-3.604
		C755.862,762.739,757.477,764.353,757.477,766.344z M753.401,754.706c-1.99,0-3.605-1.613-3.605-3.604
		c0-1.992,1.615-3.605,3.605-3.605s3.604,1.613,3.604,3.605C757.006,753.093,755.392,754.706,753.401,754.706z M753.401,758.312
		c0,1.99-1.614,3.604-3.605,3.604c-1.99,0-3.604-1.613-3.604-3.604c0-1.991,1.614-3.605,3.604-3.605
		C751.787,754.706,753.401,756.32,753.401,758.312z M749.249,766.344c0,1.99-1.615,3.604-3.605,3.604
		c-1.991,0-3.604-1.614-3.604-3.604c0-1.991,1.613-3.604,3.604-3.604C747.634,762.739,749.249,764.353,749.249,766.344z
		 M745.174,754.706c-1.992,0-3.604-1.613-3.604-3.604c0-1.992,1.612-3.605,3.604-3.605c1.99,0,3.604,1.613,3.604,3.605
		C748.778,753.093,747.164,754.706,745.174,754.706z M745.174,758.312c0,1.99-1.614,3.604-3.604,3.604
		c-1.992,0-3.605-1.613-3.605-3.604c0-1.991,1.613-3.605,3.605-3.605C743.56,754.706,745.174,756.32,745.174,758.312z
		 M736.945,754.706c-1.991,0-3.604-1.613-3.604-3.604c0-1.992,1.613-3.605,3.604-3.605s3.604,1.613,3.604,3.605
		C740.55,753.093,738.937,754.706,736.945,754.706z M736.945,758.312c0,1.99-1.614,3.604-3.604,3.604
		c-1.991,0-3.605-1.613-3.605-3.604c0-1.991,1.614-3.605,3.605-3.605C735.331,754.706,736.945,756.32,736.945,758.312z
		 M737.415,762.739c1.991,0,3.604,1.613,3.604,3.604c0,1.99-1.613,3.604-3.604,3.604c-1.99,0-3.604-1.614-3.604-3.604
		C733.811,764.353,735.425,762.739,737.415,762.739z M741.099,769.948c1.99,0,3.604,1.613,3.604,3.605
		c0,1.99-1.614,3.604-3.604,3.604c-1.991,0-3.604-1.614-3.604-3.604C737.494,771.562,739.107,769.948,741.099,769.948z
		 M744.703,777.627c1.99,0,3.605,1.613,3.605,3.604s-1.615,3.604-3.605,3.604c-1.991,0-3.604-1.613-3.604-3.604
		S742.712,777.627,744.703,777.627z M745.722,773.554c0-1.992,1.614-3.605,3.605-3.605c1.989,0,3.604,1.613,3.604,3.605
		c0,1.99-1.615,3.604-3.604,3.604C747.336,777.158,745.722,775.544,745.722,773.554z M752.932,777.627
		c1.99,0,3.604,1.613,3.604,3.604s-1.614,3.604-3.604,3.604c-1.991,0-3.604-1.613-3.604-3.604S750.94,777.627,752.932,777.627z
		 M753.95,773.554c0-1.992,1.613-3.605,3.604-3.605c1.99,0,3.605,1.613,3.605,3.605c0,1.99-1.615,3.604-3.605,3.604
		C755.563,777.158,753.95,775.544,753.95,773.554z M761.16,777.627c1.989,0,3.604,1.613,3.604,3.604s-1.615,3.604-3.604,3.604
		c-1.992,0-3.605-1.613-3.605-3.604S759.168,777.627,761.16,777.627z M762.178,773.554c0-1.992,1.614-3.605,3.604-3.605
		s3.604,1.613,3.604,3.605c0,1.99-1.614,3.604-3.604,3.604S762.178,775.544,762.178,773.554z M769.387,777.627
		c1.991,0,3.605,1.613,3.605,3.604s-1.614,3.604-3.605,3.604c-1.99,0-3.604-1.613-3.604-3.604S767.396,777.627,769.387,777.627z
		 M770.406,773.554c0-1.992,1.613-3.605,3.604-3.605c1.99,0,3.604,1.613,3.604,3.605c0,1.99-1.614,3.604-3.604,3.604
		C772.02,777.158,770.406,775.544,770.406,773.554z M777.615,777.627c1.99,0,3.605,1.613,3.605,3.604s-1.615,3.604-3.605,3.604
		s-3.604-1.613-3.604-3.604S775.625,777.627,777.615,777.627z M778.634,773.554c0-1.992,1.614-3.605,3.604-3.605
		c1.991,0,3.605,1.613,3.605,3.605c0,1.99-1.614,3.604-3.605,3.604C780.248,777.158,778.634,775.544,778.634,773.554z
		 M783.179,766.344c0-1.991,1.614-3.604,3.604-3.604c1.991,0,3.605,1.613,3.605,3.604c0,1.99-1.614,3.604-3.605,3.604
		C784.793,769.948,783.179,768.334,783.179,766.344z M787.333,758.312c0-1.991,1.613-3.605,3.604-3.605
		c1.99,0,3.604,1.614,3.604,3.605c0,1.99-1.614,3.604-3.604,3.604C788.946,761.915,787.333,760.302,787.333,758.312z
		 M786.313,754.706c-1.99,0-3.604-1.613-3.604-3.604c0-1.992,1.614-3.605,3.604-3.605c1.991,0,3.604,1.613,3.604,3.605
		C789.918,753.093,788.305,754.706,786.313,754.706z M782.16,747.497c-1.99,0-3.604-1.614-3.604-3.604
		c0-1.991,1.614-3.605,3.604-3.605c1.991,0,3.605,1.614,3.605,3.605C785.766,745.883,784.151,747.497,782.16,747.497z
		 M776.597,739.66c-1.99,0-3.604-1.613-3.604-3.604c0-1.99,1.614-3.604,3.604-3.604c1.991,0,3.604,1.614,3.604,3.604
		C780.201,738.047,778.588,739.66,776.597,739.66z M773.933,740.287c1.99,0,3.604,1.614,3.604,3.605c0,1.99-1.614,3.604-3.604,3.604
		c-1.991,0-3.604-1.614-3.604-3.604C770.328,741.901,771.941,740.287,773.933,740.287z M768.369,739.66
		c-1.991,0-3.604-1.613-3.604-3.604c0-1.99,1.613-3.604,3.604-3.604c1.99,0,3.604,1.614,3.604,3.604
		C771.974,738.047,770.359,739.66,768.369,739.66z M765.705,740.287c1.99,0,3.604,1.614,3.604,3.605c0,1.99-1.614,3.604-3.604,3.604
		c-1.991,0-3.605-1.614-3.605-3.604C762.1,741.901,763.714,740.287,765.705,740.287z M760.142,739.66
		c-1.991,0-3.605-1.613-3.605-3.604c0-1.99,1.614-3.604,3.605-3.604c1.99,0,3.604,1.614,3.604,3.604
		C763.746,738.047,762.132,739.66,760.142,739.66z M757.477,740.287c1.99,0,3.604,1.614,3.604,3.605c0,1.99-1.614,3.604-3.604,3.604
		c-1.991,0-3.605-1.614-3.605-3.604C753.871,741.901,755.485,740.287,757.477,740.287z M751.913,739.66
		c-1.991,0-3.604-1.613-3.604-3.604c0-1.99,1.613-3.604,3.604-3.604c1.99,0,3.605,1.614,3.605,3.604
		C755.519,738.047,753.903,739.66,751.913,739.66z M749.249,740.287c1.99,0,3.604,1.614,3.604,3.605c0,1.99-1.614,3.604-3.604,3.604
		c-1.991,0-3.605-1.614-3.605-3.604C745.644,741.901,747.258,740.287,749.249,740.287z M743.685,739.66
		c-1.99,0-3.604-1.613-3.604-3.604c0-1.99,1.614-3.604,3.604-3.604s3.604,1.614,3.604,3.604
		C747.289,738.047,745.675,739.66,743.685,739.66z M741.02,740.287c1.991,0,3.605,1.614,3.605,3.605c0,1.99-1.614,3.604-3.605,3.604
		c-1.99,0-3.604-1.614-3.604-3.604C737.415,741.901,739.029,740.287,741.02,740.287z M735.457,739.66
		c-1.991,0-3.604-1.613-3.604-3.604c0-1.99,1.613-3.604,3.604-3.604c1.99,0,3.604,1.614,3.604,3.604
		C739.062,738.047,737.447,739.66,735.457,739.66z M732.793,740.287c1.99,0,3.604,1.614,3.604,3.605c0,1.99-1.613,3.604-3.604,3.604
		c-1.992,0-3.605-1.614-3.605-3.604C729.188,741.901,730.801,740.287,732.793,740.287z M732.322,751.103
		c0,1.99-1.614,3.604-3.604,3.604c-1.991,0-3.605-1.613-3.605-3.604c0-1.992,1.614-3.605,3.605-3.605
		C730.708,747.497,732.322,749.11,732.322,751.103z M728.718,758.312c0,1.99-1.615,3.604-3.605,3.604
		c-1.991,0-3.605-1.613-3.605-3.604c0-1.991,1.614-3.605,3.605-3.605C727.103,754.706,728.718,756.32,728.718,758.312z
		 M729.188,762.739c1.99,0,3.604,1.613,3.604,3.604c0,1.99-1.613,3.604-3.604,3.604c-1.991,0-3.604-1.614-3.604-3.604
		C725.583,764.353,727.196,762.739,729.188,762.739z M732.87,769.948c1.99,0,3.604,1.613,3.604,3.605
		c0,1.99-1.614,3.604-3.604,3.604s-3.605-1.614-3.605-3.604C729.265,771.562,730.88,769.948,732.87,769.948z M736.475,777.627
		c1.991,0,3.605,1.613,3.605,3.604s-1.614,3.604-3.605,3.604c-1.99,0-3.604-1.613-3.604-3.604S734.484,777.627,736.475,777.627z
		 M749.213,792.515c-1.477-0.45-2.551-1.822-2.551-3.447c0-1.99,1.614-3.604,3.604-3.604s3.604,1.614,3.604,3.604
		c0,1.625-1.074,2.997-2.551,3.447H749.213z M757.441,792.515c-1.477-0.45-2.552-1.822-2.552-3.447c0-1.99,1.614-3.604,3.605-3.604
		c1.99,0,3.604,1.614,3.604,3.604c0,1.625-1.075,2.997-2.551,3.447H757.441z M765.669,792.515c-1.477-0.45-2.551-1.822-2.551-3.447
		c0-1.99,1.614-3.604,3.604-3.604c1.991,0,3.605,1.614,3.605,3.604c0,1.625-1.075,2.997-2.552,3.447H765.669z M773.897,792.515
		c-1.477-0.45-2.551-1.822-2.551-3.447c0-1.99,1.613-3.604,3.604-3.604c1.99,0,3.604,1.614,3.604,3.604
		c0,1.625-1.074,2.997-2.551,3.447H773.897z M784.232,792.515h-2.107c-1.477-0.45-2.551-1.822-2.551-3.447
		c0-1.99,1.614-3.604,3.604-3.604c1.991,0,3.604,1.614,3.604,3.604C786.783,790.692,785.709,792.064,784.232,792.515z
		 M785.844,784.836c-1.991,0-3.605-1.613-3.605-3.604s1.614-3.604,3.605-3.604c1.99,0,3.604,1.613,3.604,3.604
		S787.834,784.836,785.844,784.836z M786.862,773.554c0-1.992,1.613-3.605,3.605-3.605c1.989,0,3.604,1.613,3.604,3.605
		c0,1.99-1.615,3.604-3.604,3.604C788.476,777.158,786.862,775.544,786.862,773.554z M791.407,766.344
		c0-1.991,1.614-3.604,3.604-3.604c1.991,0,3.605,1.613,3.605,3.604c0,1.99-1.614,3.604-3.605,3.604
		C793.021,769.948,791.407,768.334,791.407,766.344z M795.56,758.312c0-1.991,1.615-3.605,3.605-3.605s3.604,1.614,3.604,3.605
		c0,1.99-1.614,3.604-3.604,3.604S795.56,760.302,795.56,758.312z M794.542,754.706c-1.991,0-3.604-1.613-3.604-3.604
		c0-1.992,1.613-3.605,3.604-3.605c1.99,0,3.604,1.613,3.604,3.605C798.146,753.093,796.532,754.706,794.542,754.706z
		 M790.389,747.497c-1.99,0-3.605-1.614-3.605-3.604c0-1.991,1.615-3.605,3.605-3.605s3.605,1.614,3.605,3.605
		C793.994,745.883,792.379,747.497,790.389,747.497z M784.825,739.66c-1.991,0-3.604-1.613-3.604-3.604
		c0-1.99,1.613-3.604,3.604-3.604c1.99,0,3.604,1.614,3.604,3.604C788.43,738.047,786.815,739.66,784.825,739.66z M774.091,724.944
		c1.453,0.465,2.506,1.825,2.506,3.433c0,1.991-1.614,3.604-3.604,3.604s-3.605-1.613-3.605-3.604c0-1.607,1.054-2.968,2.507-3.433
		H774.091z M765.863,724.944c1.453,0.465,2.506,1.825,2.506,3.433c0,1.991-1.614,3.604-3.604,3.604
		c-1.991,0-3.604-1.613-3.604-3.604c0-1.607,1.052-2.968,2.505-3.433H765.863z M757.635,724.944
		c1.453,0.465,2.507,1.825,2.507,3.433c0,1.991-1.614,3.604-3.605,3.604s-3.604-1.613-3.604-3.604c0-1.607,1.053-2.968,2.506-3.433
		H757.635z M749.406,724.944c1.454,0.465,2.507,1.825,2.507,3.433c0,1.991-1.614,3.604-3.604,3.604
		c-1.991,0-3.605-1.613-3.605-3.604c0-1.607,1.053-2.968,2.506-3.433H749.406z M741.179,724.944
		c1.453,0.465,2.506,1.825,2.506,3.433c0,1.991-1.613,3.604-3.604,3.604s-3.605-1.613-3.605-3.604c0-1.607,1.053-2.968,2.507-3.433
		H741.179z M730.753,724.944h2.198c1.453,0.465,2.506,1.825,2.506,3.433c0,1.991-1.615,3.604-3.604,3.604
		c-1.991,0-3.605-1.613-3.605-3.604C728.247,726.77,729.3,725.409,730.753,724.944z M730.833,736.056
		c0,1.991-1.613,3.604-3.604,3.604c-1.99,0-3.605-1.613-3.605-3.604c0-1.99,1.615-3.604,3.605-3.604
		C729.22,732.451,730.833,734.065,730.833,736.056z M724.564,740.287c1.99,0,3.604,1.614,3.604,3.605
		c0,1.99-1.614,3.604-3.604,3.604c-1.991,0-3.605-1.614-3.605-3.604C720.959,741.901,722.573,740.287,724.564,740.287z
		 M724.094,751.103c0,1.99-1.613,3.604-3.604,3.604s-3.605-1.613-3.605-3.604c0-1.992,1.614-3.605,3.605-3.605
		S724.094,749.11,724.094,751.103z M720.489,758.312c0,1.99-1.614,3.604-3.605,3.604c-1.99,0-3.604-1.613-3.604-3.604
		c0-1.991,1.614-3.605,3.604-3.605C718.875,754.706,720.489,756.32,720.489,758.312z M720.959,762.739
		c1.991,0,3.605,1.613,3.605,3.604c0,1.99-1.614,3.604-3.605,3.604c-1.99,0-3.605-1.614-3.605-3.604
		C717.354,764.353,718.969,762.739,720.959,762.739z M724.643,769.948c1.99,0,3.604,1.613,3.604,3.605
		c0,1.99-1.614,3.604-3.604,3.604c-1.991,0-3.605-1.614-3.605-3.604C721.037,771.562,722.651,769.948,724.643,769.948z
		 M728.247,777.627c1.991,0,3.604,1.613,3.604,3.604s-1.613,3.604-3.604,3.604s-3.604-1.613-3.604-3.604
		S726.256,777.627,728.247,777.627z M792.461,792.515h-2.107c-1.477-0.45-2.551-1.822-2.551-3.447c0-1.99,1.613-3.604,3.604-3.604
		c1.99,0,3.604,1.614,3.604,3.604C795.012,790.692,793.938,792.064,792.461,792.515z M794.072,784.836
		c-1.992,0-3.604-1.613-3.604-3.604s1.612-3.604,3.604-3.604c1.99,0,3.604,1.613,3.604,3.604S796.063,784.836,794.072,784.836z
		 M795.09,773.554c0-1.992,1.614-3.605,3.604-3.605c1.991,0,3.605,1.613,3.605,3.605c0,1.99-1.614,3.604-3.605,3.604
		C796.704,777.158,795.09,775.544,795.09,773.554z M799.635,766.344c0-1.991,1.614-3.604,3.605-3.604
		c1.99,0,3.604,1.613,3.604,3.604c0,1.99-1.614,3.604-3.604,3.604C801.249,769.948,799.635,768.334,799.635,766.344z
		 M803.789,758.312c0-1.991,1.613-3.605,3.604-3.605c1.99,0,3.604,1.614,3.604,3.605c0,1.99-1.614,3.604-3.604,3.604
		C805.402,761.915,803.789,760.302,803.789,758.312z M802.77,754.706c-1.99,0-3.604-1.613-3.604-3.604
		c0-1.992,1.614-3.605,3.604-3.605c1.991,0,3.605,1.613,3.605,3.605C806.375,753.093,804.761,754.706,802.77,754.706z
		 M798.617,747.497c-1.991,0-3.605-1.614-3.605-3.604c0-1.991,1.614-3.605,3.605-3.605c1.99,0,3.604,1.614,3.604,3.605
		C802.222,745.883,800.607,747.497,798.617,747.497z M793.054,739.66c-1.991,0-3.605-1.613-3.605-3.604
		c0-1.99,1.614-3.604,3.605-3.604c1.99,0,3.604,1.614,3.604,3.604C796.658,738.047,795.044,739.66,793.054,739.66z M722.524,724.944
		h2.198c1.452,0.465,2.506,1.825,2.506,3.433c0,1.991-1.613,3.604-3.605,3.604c-1.99,0-3.604-1.613-3.604-3.604
		C720.019,726.77,721.072,725.409,722.524,724.944z M722.604,736.056c0,1.991-1.613,3.604-3.604,3.604
		c-1.991,0-3.605-1.613-3.605-3.604c0-1.99,1.614-3.604,3.605-3.604C720.991,732.451,722.604,734.065,722.604,736.056z
		 M716.337,740.287c1.989,0,3.604,1.614,3.604,3.605c0,1.99-1.615,3.604-3.604,3.604c-1.992,0-3.605-1.614-3.605-3.604
		C712.731,741.901,714.345,740.287,716.337,740.287z M715.865,751.103c0,1.99-1.613,3.604-3.604,3.604
		c-1.992,0-3.605-1.613-3.605-3.604c0-1.992,1.613-3.605,3.605-3.605C714.252,747.497,715.865,749.11,715.865,751.103z
		 M712.262,758.312c0,1.99-1.615,3.604-3.605,3.604c-1.991,0-3.604-1.613-3.604-3.604c0-1.991,1.613-3.605,3.604-3.605
		C710.646,754.706,712.262,756.32,712.262,758.312z M712.731,762.739c1.99,0,3.604,1.613,3.604,3.604
		c0,1.99-1.614,3.604-3.604,3.604c-1.991,0-3.604-1.614-3.604-3.604C709.127,764.353,710.74,762.739,712.731,762.739z
		 M716.414,769.948c1.991,0,3.604,1.613,3.604,3.605c0,1.99-1.613,3.604-3.604,3.604c-1.99,0-3.605-1.614-3.605-3.604
		C712.809,771.562,714.424,769.948,716.414,769.948z M720.019,777.627c1.991,0,3.604,1.613,3.604,3.604s-1.613,3.604-3.604,3.604
		c-1.99,0-3.604-1.613-3.604-3.604S718.028,777.627,720.019,777.627z M800.689,792.515h-2.107c-1.478-0.45-2.552-1.822-2.552-3.447
		c0-1.99,1.614-3.604,3.604-3.604c1.991,0,3.605,1.614,3.605,3.604C803.24,790.692,802.165,792.064,800.689,792.515z M802.3,784.836
		c-1.991,0-3.605-1.613-3.605-3.604s1.614-3.604,3.605-3.604c1.99,0,3.604,1.613,3.604,3.604S804.29,784.836,802.3,784.836z
		 M803.318,773.554c0-1.992,1.614-3.605,3.605-3.605c1.989,0,3.604,1.613,3.604,3.605c0,1.99-1.614,3.604-3.604,3.604
		C804.933,777.158,803.318,775.544,803.318,773.554z M807.863,766.344c0-1.991,1.614-3.604,3.605-3.604
		c1.99,0,3.604,1.613,3.604,3.604c0,1.99-1.614,3.604-3.604,3.604C809.478,769.948,807.863,768.334,807.863,766.344z
		 M812.017,758.312c0-1.991,1.614-3.605,3.604-3.605s3.605,1.614,3.605,3.605c0,1.99-1.615,3.604-3.605,3.604
		S812.017,760.302,812.017,758.312z M810.998,754.706c-1.991,0-3.604-1.613-3.604-3.604c0-1.992,1.613-3.605,3.604-3.605
		c1.99,0,3.604,1.613,3.604,3.605C814.603,753.093,812.988,754.706,810.998,754.706z M806.845,747.497
		c-1.99,0-3.604-1.614-3.604-3.604c0-1.991,1.614-3.605,3.604-3.605s3.604,1.614,3.604,3.605
		C810.449,745.883,808.835,747.497,806.845,747.497z M801.282,739.66c-1.992,0-3.605-1.613-3.605-3.604
		c0-1.99,1.613-3.604,3.605-3.604c1.989,0,3.604,1.614,3.604,3.604C804.887,738.047,803.271,739.66,801.282,739.66z
		 M714.297,724.944h2.197c1.453,0.465,2.507,1.825,2.507,3.433c0,1.991-1.615,3.604-3.605,3.604c-1.991,0-3.604-1.613-3.604-3.604
		C711.791,726.77,712.844,725.409,714.297,724.944z M714.377,736.056c0,1.991-1.613,3.604-3.604,3.604
		c-1.99,0-3.605-1.613-3.605-3.604c0-1.99,1.615-3.604,3.605-3.604C712.764,732.451,714.377,734.065,714.377,736.056z
		 M708.107,740.287c1.991,0,3.605,1.614,3.605,3.605c0,1.99-1.614,3.604-3.605,3.604c-1.99,0-3.604-1.614-3.604-3.604
		C704.503,741.901,706.117,740.287,708.107,740.287z M707.637,751.103c0,1.99-1.612,3.604-3.604,3.604
		c-1.99,0-3.605-1.613-3.605-3.604c0-1.992,1.615-3.605,3.605-3.605C706.024,747.497,707.637,749.11,707.637,751.103z
		 M704.503,762.739c1.991,0,3.604,1.613,3.604,3.604c0,1.99-1.613,3.604-3.604,3.604c-1.99,0-3.605-1.614-3.605-3.604
		C700.897,764.353,702.513,762.739,704.503,762.739z M708.187,769.948c1.99,0,3.604,1.613,3.604,3.605
		c0,1.99-1.614,3.604-3.604,3.604c-1.991,0-3.605-1.614-3.605-3.604C704.581,771.562,706.195,769.948,708.187,769.948z
		 M711.791,777.627c1.99,0,3.604,1.613,3.604,3.604s-1.614,3.604-3.604,3.604c-1.991,0-3.604-1.613-3.604-3.604
		S709.8,777.627,711.791,777.627z M808.917,792.515h-2.107c-1.477-0.45-2.551-1.822-2.551-3.447c0-1.99,1.613-3.604,3.604-3.604
		c1.99,0,3.605,1.614,3.605,3.604C811.469,790.692,810.394,792.064,808.917,792.515z M810.527,784.836
		c-1.99,0-3.604-1.613-3.604-3.604s1.613-3.604,3.604-3.604c1.991,0,3.605,1.613,3.605,3.604S812.519,784.836,810.527,784.836z
		 M811.546,773.554c0-1.992,1.614-3.605,3.604-3.605c1.991,0,3.605,1.613,3.605,3.605c0,1.99-1.614,3.604-3.605,3.604
		C813.16,777.158,811.546,775.544,811.546,773.554z M816.092,766.344c0-1.991,1.614-3.604,3.604-3.604s3.604,1.613,3.604,3.604
		c0,1.99-1.614,3.604-3.604,3.604S816.092,768.334,816.092,766.344z M819.227,754.706c-1.991,0-3.605-1.613-3.605-3.604
		c0-1.992,1.614-3.605,3.605-3.605c1.99,0,3.604,1.613,3.604,3.605C822.831,753.093,821.217,754.706,819.227,754.706z
		 M815.073,747.497c-1.991,0-3.604-1.614-3.604-3.604c0-1.991,1.613-3.605,3.604-3.605c1.99,0,3.604,1.614,3.604,3.605
		C818.678,745.883,817.063,747.497,815.073,747.497z M809.51,739.66c-1.991,0-3.605-1.613-3.605-3.604
		c0-1.99,1.614-3.604,3.605-3.604c1.99,0,3.604,1.614,3.604,3.604C813.114,738.047,811.5,739.66,809.51,739.66z M813.819,706.278
		c0,1.467-0.88,2.729-2.14,3.291h-2.932c-1.26-0.563-2.139-1.824-2.139-3.291c0-1.991,1.614-3.605,3.604-3.605
		C812.205,702.673,813.819,704.287,813.819,706.278z M810.685,699.068c0-1.99,1.614-3.604,3.604-3.604
		c1.991,0,3.605,1.614,3.605,3.604c0,1.991-1.614,3.604-3.605,3.604C812.299,702.673,810.685,701.06,810.685,699.068z
		 M806.062,702.673c-1.991,0-3.604-1.613-3.604-3.604c0-1.99,1.613-3.604,3.604-3.604c1.99,0,3.605,1.614,3.605,3.604
		C809.667,701.06,808.052,702.673,806.062,702.673z M805.591,706.278c0,1.467-0.879,2.729-2.139,3.291h-2.932
		c-1.26-0.563-2.139-1.824-2.139-3.291c0-1.991,1.613-3.605,3.604-3.605C803.977,702.673,805.591,704.287,805.591,706.278z
		 M797.833,702.673c-1.99,0-3.605-1.613-3.605-3.604c0-1.99,1.615-3.604,3.605-3.604s3.604,1.614,3.604,3.604
		C801.438,701.06,799.823,702.673,797.833,702.673z M797.363,706.278c0,1.467-0.88,2.729-2.14,3.291h-2.932
		c-1.26-0.563-2.139-1.824-2.139-3.291c0-1.991,1.614-3.605,3.604-3.605C795.749,702.673,797.363,704.287,797.363,706.278z
		 M789.605,702.673c-1.991,0-3.605-1.613-3.605-3.604c0-1.99,1.614-3.604,3.605-3.604c1.99,0,3.604,1.614,3.604,3.604
		C793.21,701.06,791.596,702.673,789.605,702.673z M789.135,706.278c0,1.467-0.88,2.729-2.139,3.291h-2.932
		c-1.26-0.563-2.139-1.824-2.139-3.291c0-1.991,1.613-3.605,3.604-3.605C787.521,702.673,789.135,704.287,789.135,706.278z
		 M781.377,702.673c-1.99,0-3.604-1.613-3.604-3.604c0-1.99,1.614-3.604,3.604-3.604s3.604,1.614,3.604,3.604
		C784.981,701.06,783.367,702.673,781.377,702.673z M780.907,706.278c0,1.467-0.88,2.729-2.14,3.291h-2.932
		c-1.26-0.563-2.139-1.824-2.139-3.291c0-1.991,1.614-3.605,3.604-3.605C779.293,702.673,780.907,704.287,780.907,706.278z
		 M773.149,702.673c-1.991,0-3.604-1.613-3.604-3.604c0-1.99,1.613-3.604,3.604-3.604c1.99,0,3.604,1.614,3.604,3.604
		C776.754,701.06,775.14,702.673,773.149,702.673z M772.679,706.278c0,1.467-0.88,2.729-2.139,3.291h-2.933
		c-1.26-0.563-2.139-1.824-2.139-3.291c0-1.991,1.613-3.605,3.605-3.605C771.064,702.673,772.679,704.287,772.679,706.278z
		 M764.921,702.673c-1.991,0-3.605-1.613-3.605-3.604c0-1.99,1.614-3.604,3.605-3.604c1.99,0,3.604,1.614,3.604,3.604
		C768.525,701.06,766.911,702.673,764.921,702.673z M764.45,706.278c0,1.467-0.879,2.729-2.139,3.291h-2.933
		c-1.259-0.563-2.139-1.824-2.139-3.291c0-1.991,1.615-3.605,3.605-3.605C762.837,702.673,764.45,704.287,764.45,706.278z
		 M756.692,702.673c-1.991,0-3.604-1.613-3.604-3.604c0-1.99,1.613-3.604,3.604-3.604c1.99,0,3.605,1.614,3.605,3.604
		C760.298,701.06,758.683,702.673,756.692,702.673z M756.223,706.278c0,1.467-0.879,2.729-2.139,3.291h-2.933
		c-1.26-0.563-2.139-1.824-2.139-3.291c0-1.991,1.614-3.605,3.605-3.605C754.608,702.673,756.223,704.287,756.223,706.278z
		 M748.464,702.673c-1.99,0-3.604-1.613-3.604-3.604c0-1.99,1.614-3.604,3.604-3.604c1.992,0,3.605,1.614,3.605,3.604
		C752.069,701.06,750.456,702.673,748.464,702.673z M747.995,706.278c0,1.467-0.88,2.729-2.14,3.291h-2.932
		c-1.26-0.563-2.14-1.824-2.14-3.291c0-1.991,1.614-3.605,3.605-3.605C746.38,702.673,747.995,704.287,747.995,706.278z
		 M740.236,702.673c-1.991,0-3.604-1.613-3.604-3.604c0-1.99,1.613-3.604,3.604-3.604s3.605,1.614,3.605,3.604
		C743.842,701.06,742.228,702.673,740.236,702.673z M739.767,706.278c0,1.467-0.879,2.729-2.139,3.291h-2.933
		c-1.26-0.563-2.139-1.824-2.139-3.291c0-1.991,1.614-3.605,3.605-3.605C738.151,702.673,739.767,704.287,739.767,706.278z
		 M732.008,702.673c-1.99,0-3.604-1.613-3.604-3.604c0-1.99,1.614-3.604,3.604-3.604c1.991,0,3.605,1.614,3.605,3.604
		C735.613,701.06,733.999,702.673,732.008,702.673z M731.538,706.278c0,1.467-0.88,2.729-2.139,3.291h-2.933
		c-1.259-0.563-2.138-1.824-2.138-3.291c0-1.991,1.613-3.605,3.604-3.605C729.924,702.673,731.538,704.287,731.538,706.278z
		 M723.78,702.673c-1.991,0-3.604-1.613-3.604-3.604c0-1.99,1.613-3.604,3.604-3.604s3.604,1.614,3.604,3.604
		C727.385,701.06,725.771,702.673,723.78,702.673z M723.311,706.278c0,1.467-0.88,2.729-2.14,3.291h-2.932
		c-1.26-0.563-2.139-1.824-2.139-3.291c0-1.991,1.613-3.605,3.604-3.605C721.695,702.673,723.311,704.287,723.311,706.278z
		 M715.552,702.673c-1.99,0-3.604-1.613-3.604-3.604c0-1.99,1.614-3.604,3.604-3.604c1.991,0,3.604,1.614,3.604,3.604
		C719.156,701.06,717.543,702.673,715.552,702.673z M715.082,706.278c0,1.467-0.88,2.729-2.14,3.291h-2.932
		c-1.259-0.563-2.138-1.824-2.138-3.291c0-1.991,1.613-3.605,3.604-3.605C713.468,702.673,715.082,704.287,715.082,706.278z
		 M707.324,702.673c-1.991,0-3.604-1.613-3.604-3.604c0-1.99,1.613-3.604,3.604-3.604c1.99,0,3.604,1.614,3.604,3.604
		C710.929,701.06,709.314,702.673,707.324,702.673z M706.068,724.944h2.198c1.453,0.465,2.506,1.825,2.506,3.433
		c0,1.991-1.614,3.604-3.605,3.604c-1.99,0-3.604-1.613-3.604-3.604C703.563,726.77,704.615,725.409,706.068,724.944z
		 M706.148,736.056c0,1.991-1.613,3.604-3.604,3.604c-1.991,0-3.605-1.613-3.605-3.604c0-1.99,1.614-3.604,3.605-3.604
		C704.535,732.451,706.148,734.065,706.148,736.056z M699.88,740.287c1.99,0,3.604,1.614,3.604,3.605
		c0,1.99-1.614,3.604-3.604,3.604c-1.991,0-3.604-1.614-3.604-3.604C696.275,741.901,697.889,740.287,699.88,740.287z
		 M700.428,754.706c1.991,0,3.605,1.614,3.605,3.605c0,1.99-1.614,3.604-3.605,3.604c-1.99,0-3.604-1.613-3.604-3.604
		C696.823,756.32,698.438,754.706,700.428,754.706z M703.563,773.554c0,1.99-1.613,3.604-3.604,3.604
		c-1.99,0-3.605-1.614-3.605-3.604c0-1.992,1.615-3.605,3.605-3.605C701.949,769.948,703.563,771.562,703.563,773.554z
		 M703.563,777.627c1.991,0,3.604,1.613,3.604,3.604s-1.613,3.604-3.604,3.604c-1.99,0-3.604-1.613-3.604-3.604
		S701.572,777.627,703.563,777.627z M706.783,807.891c1.243,0.569,2.108,1.821,2.108,3.277c0,1.989-1.614,3.604-3.604,3.604
		c-1.991,0-3.604-1.614-3.604-3.604c0-1.456,0.864-2.708,2.108-3.277H706.783z M704.347,818.376c0,1.991-1.614,3.605-3.605,3.605
		s-3.604-1.614-3.604-3.605c0-1.99,1.612-3.604,3.604-3.604S704.347,816.386,704.347,818.376z M704.347,822.45
		c1.99,0,3.605,1.614,3.605,3.604c0,1.991-1.615,3.604-3.605,3.604c-1.991,0-3.605-1.613-3.605-3.604
		C700.741,824.064,702.355,822.45,704.347,822.45z M705.365,818.376c0-1.99,1.613-3.604,3.604-3.604s3.604,1.614,3.604,3.604
		c0,1.991-1.613,3.605-3.604,3.605S705.365,820.367,705.365,818.376z M712.574,822.45c1.991,0,3.605,1.614,3.605,3.604
		c0,1.991-1.614,3.604-3.605,3.604c-1.99,0-3.604-1.613-3.604-3.604C708.97,824.064,710.584,822.45,712.574,822.45z
		 M713.594,818.376c0-1.99,1.613-3.604,3.604-3.604c1.99,0,3.604,1.614,3.604,3.604c0,1.991-1.614,3.605-3.604,3.605
		C715.207,821.981,713.594,820.367,713.594,818.376z M720.803,822.45c1.99,0,3.604,1.614,3.604,3.604
		c0,1.991-1.614,3.604-3.604,3.604c-1.991,0-3.604-1.613-3.604-3.604C717.198,824.064,718.812,822.45,720.803,822.45z
		 M721.82,818.376c0-1.99,1.615-3.604,3.605-3.604c1.991,0,3.604,1.614,3.604,3.604c0,1.991-1.613,3.605-3.604,3.605
		C723.436,821.981,721.82,820.367,721.82,818.376z M729.03,822.45c1.991,0,3.605,1.614,3.605,3.604c0,1.991-1.614,3.604-3.605,3.604
		c-1.989,0-3.604-1.613-3.604-3.604C725.426,824.064,727.041,822.45,729.03,822.45z M730.049,818.376
		c0-1.99,1.614-3.604,3.605-3.604c1.99,0,3.604,1.614,3.604,3.604c0,1.991-1.614,3.605-3.604,3.605
		C731.663,821.981,730.049,820.367,730.049,818.376z M737.259,822.45c1.991,0,3.604,1.614,3.604,3.604
		c0,1.991-1.613,3.604-3.604,3.604s-3.604-1.613-3.604-3.604C733.654,824.064,735.268,822.45,737.259,822.45z M738.277,818.376
		c0-1.99,1.613-3.604,3.604-3.604s3.604,1.614,3.604,3.604c0,1.991-1.613,3.605-3.604,3.605S738.277,820.367,738.277,818.376z
		 M745.486,822.45c1.991,0,3.605,1.614,3.605,3.604c0,1.991-1.614,3.604-3.605,3.604s-3.604-1.613-3.604-3.604
		C741.882,824.064,743.495,822.45,745.486,822.45z M746.506,818.376c0-1.99,1.613-3.604,3.604-3.604c1.99,0,3.605,1.614,3.605,3.604
		c0,1.991-1.615,3.605-3.605,3.605C748.119,821.981,746.506,820.367,746.506,818.376z M753.716,822.45
		c1.99,0,3.604,1.614,3.604,3.604c0,1.991-1.614,3.604-3.604,3.604c-1.991,0-3.605-1.613-3.605-3.604
		C750.11,824.064,751.725,822.45,753.716,822.45z M754.733,818.376c0-1.99,1.614-3.604,3.604-3.604c1.991,0,3.605,1.614,3.605,3.604
		c0,1.991-1.614,3.605-3.605,3.605C756.348,821.981,754.733,820.367,754.733,818.376z M761.943,822.45
		c1.99,0,3.604,1.614,3.604,3.604c0,1.991-1.614,3.604-3.604,3.604c-1.991,0-3.605-1.613-3.605-3.604
		C758.338,824.064,759.952,822.45,761.943,822.45z M762.962,818.376c0-1.99,1.613-3.604,3.604-3.604c1.99,0,3.604,1.614,3.604,3.604
		c0,1.991-1.614,3.605-3.604,3.605C764.575,821.981,762.962,820.367,762.962,818.376z M770.171,822.45
		c1.991,0,3.605,1.614,3.605,3.604c0,1.991-1.614,3.604-3.605,3.604c-1.99,0-3.604-1.613-3.604-3.604
		C766.566,824.064,768.181,822.45,770.171,822.45z M771.189,818.376c0-1.99,1.614-3.604,3.605-3.604c1.99,0,3.604,1.614,3.604,3.604
		c0,1.991-1.614,3.605-3.604,3.605C772.804,821.981,771.189,820.367,771.189,818.376z M778.399,822.45
		c1.99,0,3.604,1.614,3.604,3.604c0,1.991-1.614,3.604-3.604,3.604c-1.991,0-3.604-1.613-3.604-3.604
		C774.795,824.064,776.408,822.45,778.399,822.45z M779.418,818.376c0-1.99,1.613-3.604,3.604-3.604s3.605,1.614,3.605,3.604
		c0,1.991-1.614,3.605-3.605,3.605S779.418,820.367,779.418,818.376z M786.628,822.45c1.99,0,3.604,1.614,3.604,3.604
		c0,1.991-1.614,3.604-3.604,3.604c-1.991,0-3.605-1.613-3.605-3.604C783.022,824.064,784.637,822.45,786.628,822.45z
		 M787.646,818.376c0-1.99,1.614-3.604,3.604-3.604c1.991,0,3.605,1.614,3.605,3.604c0,1.991-1.614,3.605-3.605,3.605
		C789.26,821.981,787.646,820.367,787.646,818.376z M794.855,822.45c1.99,0,3.605,1.614,3.605,3.604
		c0,1.991-1.615,3.604-3.605,3.604c-1.991,0-3.605-1.613-3.605-3.604C791.25,824.064,792.864,822.45,794.855,822.45z
		 M795.874,818.376c0-1.99,1.614-3.604,3.605-3.604c1.99,0,3.604,1.614,3.604,3.604c0,1.991-1.614,3.605-3.604,3.605
		C797.488,821.981,795.874,820.367,795.874,818.376z M803.084,822.45c1.99,0,3.604,1.614,3.604,3.604
		c0,1.991-1.614,3.604-3.604,3.604c-1.991,0-3.604-1.613-3.604-3.604C799.479,824.064,801.093,822.45,803.084,822.45z
		 M804.102,818.376c0-1.99,1.614-3.604,3.605-3.604c1.99,0,3.604,1.614,3.604,3.604c0,1.991-1.614,3.605-3.604,3.605
		C805.716,821.981,804.102,820.367,804.102,818.376z M811.312,822.45c1.99,0,3.604,1.614,3.604,3.604
		c0,1.991-1.614,3.604-3.604,3.604s-3.604-1.613-3.604-3.604C807.707,824.064,809.321,822.45,811.312,822.45z M812.33,818.376
		c0-1.99,1.614-3.604,3.604-3.604c1.991,0,3.605,1.614,3.605,3.604c0,1.991-1.614,3.605-3.605,3.605
		C813.944,821.981,812.33,820.367,812.33,818.376z M819.54,822.45c1.99,0,3.604,1.614,3.604,3.604c0,1.991-1.614,3.604-3.604,3.604
		c-1.991,0-3.605-1.613-3.605-3.604C815.935,824.064,817.549,822.45,819.54,822.45z M820.559,818.376
		c0-1.99,1.613-3.604,3.604-3.604c1.99,0,3.604,1.614,3.604,3.604c0,1.991-1.614,3.605-3.604,3.605
		C822.172,821.981,820.559,820.367,820.559,818.376z M824.085,811.168c0,1.989-1.614,3.604-3.605,3.604
		c-1.99,0-3.604-1.614-3.604-3.604c0-1.456,0.865-2.708,2.109-3.277h2.992C823.22,808.46,824.085,809.712,824.085,811.168z
		 M817.146,792.515h-2.107c-1.477-0.45-2.552-1.822-2.552-3.447c0-1.99,1.614-3.604,3.605-3.604c1.99,0,3.604,1.614,3.604,3.604
		C819.696,790.692,818.621,792.064,817.146,792.515z M818.756,784.836c-1.99,0-3.605-1.613-3.605-3.604s1.615-3.604,3.605-3.604
		s3.604,1.613,3.604,3.604S820.746,784.836,818.756,784.836z M819.774,773.554c0-1.992,1.614-3.605,3.605-3.605
		c1.989,0,3.604,1.613,3.604,3.605c0,1.99-1.615,3.604-3.604,3.604C821.389,777.158,819.774,775.544,819.774,773.554z
		 M820.245,758.312c0-1.991,1.613-3.605,3.604-3.605c1.99,0,3.604,1.614,3.604,3.605c0,1.99-1.614,3.604-3.604,3.604
		C821.858,761.915,820.245,760.302,820.245,758.312z M823.301,747.497c-1.99,0-3.604-1.614-3.604-3.604
		c0-1.991,1.614-3.605,3.604-3.605c1.991,0,3.605,1.614,3.605,3.605C826.906,745.883,825.292,747.497,823.301,747.497z
		 M817.737,739.66c-1.991,0-3.604-1.613-3.604-3.604c0-1.99,1.613-3.604,3.604-3.604s3.604,1.614,3.604,3.604
		C821.342,738.047,819.729,739.66,817.737,739.66z M816.977,709.569c-1.26-0.563-2.139-1.824-2.139-3.291
		c0-1.991,1.613-3.605,3.604-3.605c1.99,0,3.605,1.614,3.605,3.605c0,1.467-0.88,2.729-2.14,3.291H816.977z M818.913,699.068
		c0-1.99,1.613-3.604,3.604-3.604c1.99,0,3.604,1.614,3.604,3.604c0,1.991-1.614,3.604-3.604,3.604
		C820.526,702.673,818.913,701.06,818.913,699.068z M813.349,679.949c1.991,0,3.605,1.613,3.605,3.604
		c0,1.991-1.614,3.605-3.605,3.605c-1.99,0-3.604-1.614-3.604-3.605C809.744,681.563,811.358,679.949,813.349,679.949z
		 M812.331,691.231c0,1.992-1.615,3.605-3.605,3.605c-1.991,0-3.604-1.613-3.604-3.605c0-1.99,1.613-3.604,3.604-3.604
		C810.716,687.627,812.331,689.241,812.331,691.231z M805.121,679.949c1.99,0,3.604,1.613,3.604,3.604
		c0,1.991-1.614,3.605-3.604,3.605c-1.991,0-3.604-1.614-3.604-3.605C801.517,681.563,803.13,679.949,805.121,679.949z
		 M804.103,691.231c0,1.992-1.614,3.605-3.604,3.605c-1.991,0-3.604-1.613-3.604-3.605c0-1.99,1.613-3.604,3.604-3.604
		C802.488,687.627,804.103,689.241,804.103,691.231z M796.894,679.949c1.989,0,3.604,1.613,3.604,3.604
		c0,1.991-1.615,3.605-3.604,3.605c-1.991,0-3.605-1.614-3.605-3.605C793.288,681.563,794.902,679.949,796.894,679.949z
		 M795.875,691.231c0,1.992-1.615,3.605-3.605,3.605c-1.991,0-3.604-1.613-3.604-3.605c0-1.99,1.613-3.604,3.604-3.604
		C794.26,687.627,795.875,689.241,795.875,691.231z M788.665,679.949c1.989,0,3.604,1.613,3.604,3.604
		c0,1.991-1.615,3.605-3.604,3.605c-1.991,0-3.604-1.614-3.604-3.605C785.061,681.563,786.674,679.949,788.665,679.949z
		 M787.646,691.231c0,1.992-1.614,3.605-3.605,3.605c-1.99,0-3.604-1.613-3.604-3.605c0-1.99,1.614-3.604,3.604-3.604
		C786.032,687.627,787.646,689.241,787.646,691.231z M780.437,679.949c1.99,0,3.604,1.613,3.604,3.604
		c0,1.991-1.614,3.605-3.604,3.605s-3.605-1.614-3.605-3.605C776.831,681.563,778.446,679.949,780.437,679.949z M779.418,691.231
		c0,1.992-1.614,3.605-3.604,3.605c-1.991,0-3.604-1.613-3.604-3.605c0-1.99,1.613-3.604,3.604-3.604
		C777.804,687.627,779.418,689.241,779.418,691.231z M772.209,679.949c1.99,0,3.604,1.613,3.604,3.604
		c0,1.991-1.614,3.605-3.604,3.605c-1.991,0-3.605-1.614-3.605-3.605C768.604,681.563,770.218,679.949,772.209,679.949z
		 M771.19,691.231c0,1.992-1.614,3.605-3.605,3.605c-1.99,0-3.604-1.613-3.604-3.605c0-1.99,1.614-3.604,3.604-3.604
		C769.576,687.627,771.19,689.241,771.19,691.231z M763.98,679.949c1.99,0,3.604,1.613,3.604,3.604c0,1.991-1.614,3.605-3.604,3.605
		c-1.991,0-3.604-1.614-3.604-3.605C760.376,681.563,761.989,679.949,763.98,679.949z M762.962,691.231
		c0,1.992-1.614,3.605-3.604,3.605c-1.991,0-3.605-1.613-3.605-3.605c0-1.99,1.614-3.604,3.605-3.604
		C761.348,687.627,762.962,689.241,762.962,691.231z M755.752,679.949c1.99,0,3.605,1.613,3.605,3.604
		c0,1.991-1.615,3.605-3.605,3.605s-3.604-1.614-3.604-3.605C752.147,681.563,753.762,679.949,755.752,679.949z M754.734,691.231
		c0,1.992-1.615,3.605-3.605,3.605s-3.604-1.613-3.604-3.605c0-1.99,1.614-3.604,3.604-3.604S754.734,689.241,754.734,691.231z
		 M747.524,679.949c1.991,0,3.604,1.613,3.604,3.604c0,1.991-1.613,3.605-3.604,3.605s-3.604-1.614-3.604-3.605
		C743.92,681.563,745.533,679.949,747.524,679.949z M746.506,691.231c0,1.992-1.614,3.605-3.604,3.605
		c-1.991,0-3.604-1.613-3.604-3.605c0-1.99,1.613-3.604,3.604-3.604C744.892,687.627,746.506,689.241,746.506,691.231z
		 M739.297,679.949c1.991,0,3.604,1.613,3.604,3.604c0,1.991-1.613,3.605-3.604,3.605s-3.605-1.614-3.605-3.605
		C735.691,681.563,737.306,679.949,739.297,679.949z M738.277,691.231c0,1.992-1.613,3.605-3.604,3.605
		c-1.99,0-3.605-1.613-3.605-3.605c0-1.99,1.615-3.604,3.605-3.604C736.664,687.627,738.277,689.241,738.277,691.231z
		 M731.067,679.949c1.991,0,3.604,1.613,3.604,3.604c0,1.991-1.613,3.605-3.604,3.605c-1.99,0-3.604-1.614-3.604-3.605
		C727.464,681.563,729.077,679.949,731.067,679.949z M730.05,691.231c0,1.992-1.614,3.605-3.604,3.605
		c-1.991,0-3.605-1.613-3.605-3.605c0-1.99,1.614-3.604,3.605-3.604C728.436,687.627,730.05,689.241,730.05,691.231z
		 M722.84,679.949c1.991,0,3.604,1.613,3.604,3.604c0,1.991-1.613,3.605-3.604,3.605c-1.99,0-3.604-1.614-3.604-3.605
		C719.235,681.563,720.85,679.949,722.84,679.949z M721.821,691.231c0,1.992-1.614,3.605-3.604,3.605
		c-1.991,0-3.604-1.613-3.604-3.605c0-1.99,1.613-3.604,3.604-3.604C720.207,687.627,721.821,689.241,721.821,691.231z
		 M714.612,679.949c1.99,0,3.604,1.613,3.604,3.604c0,1.991-1.613,3.605-3.604,3.605c-1.991,0-3.605-1.614-3.605-3.605
		C711.007,681.563,712.621,679.949,714.612,679.949z M713.594,691.231c0,1.992-1.615,3.605-3.605,3.605
		c-1.991,0-3.604-1.613-3.604-3.605c0-1.99,1.613-3.604,3.604-3.604C711.979,687.627,713.594,689.241,713.594,691.231z
		 M706.384,679.949c1.991,0,3.604,1.613,3.604,3.604c0,1.991-1.613,3.605-3.604,3.605s-3.604-1.614-3.604-3.605
		C702.779,681.563,704.393,679.949,706.384,679.949z M705.365,691.231c0,1.992-1.614,3.605-3.604,3.605
		c-1.991,0-3.604-1.613-3.604-3.605c0-1.99,1.613-3.604,3.604-3.604C703.751,687.627,705.365,689.241,705.365,691.231z
		 M694.551,683.553c0-1.99,1.614-3.604,3.605-3.604c1.99,0,3.604,1.613,3.604,3.604c0,1.991-1.613,3.605-3.604,3.605
		C696.165,687.158,694.551,685.544,694.551,683.553z M699.096,695.464c1.991,0,3.604,1.614,3.604,3.604
		c0,1.991-1.613,3.604-3.604,3.604c-1.99,0-3.604-1.613-3.604-3.604C695.491,697.078,697.105,695.464,699.096,695.464z
		 M691.416,706.278c0-1.991,1.614-3.605,3.604-3.605c1.991,0,3.605,1.614,3.605,3.605c0,1.467-0.88,2.729-2.14,3.291h-2.932
		C692.295,709.007,691.416,707.745,691.416,706.278z M700.038,724.944c1.453,0.465,2.507,1.825,2.507,3.433
		c0,1.991-1.615,3.604-3.605,3.604c-1.991,0-3.604-1.613-3.604-3.604c0-1.607,1.053-2.968,2.505-3.433H700.038z M694.316,739.66
		c-1.99,0-3.605-1.613-3.605-3.604c0-1.99,1.615-3.604,3.605-3.604c1.991,0,3.604,1.614,3.604,3.604
		C697.921,738.047,696.308,739.66,694.316,739.66z M692.2,751.103c0-1.992,1.613-3.605,3.605-3.605c1.99,0,3.604,1.613,3.604,3.605
		c0,1.99-1.613,3.604-3.604,3.604C693.813,754.706,692.2,753.093,692.2,751.103z M692.67,766.344c0-1.991,1.614-3.604,3.605-3.604
		c1.99,0,3.604,1.613,3.604,3.604c0,1.99-1.613,3.604-3.604,3.604C694.284,769.948,692.67,768.334,692.67,766.344z M695.335,784.836
		c-1.991,0-3.604-1.613-3.604-3.604s1.613-3.604,3.604-3.604s3.604,1.613,3.604,3.604S697.326,784.836,695.335,784.836z
		 M697.293,789.067c0-1.99,1.614-3.604,3.604-3.604c1.991,0,3.605,1.614,3.605,3.604c0,1.625-1.075,2.997-2.552,3.447h-2.106
		C698.367,792.064,697.293,790.692,697.293,789.067z M693.454,811.168c0-1.456,0.865-2.708,2.108-3.277h2.992
		c1.243,0.569,2.109,1.821,2.109,3.277c0,1.989-1.615,3.604-3.605,3.604C695.067,814.771,693.454,813.157,693.454,811.168z
		 M696.118,829.659c-1.99,0-3.604-1.613-3.604-3.604c0-1.99,1.614-3.604,3.604-3.604c1.991,0,3.605,1.614,3.605,3.604
		C699.724,828.046,698.109,829.659,696.118,829.659z M697.607,844.705c-1.991,0-3.605-1.613-3.605-3.604
		c0-1.99,1.614-3.604,3.605-3.604c1.99,0,3.604,1.613,3.604,3.604C701.212,843.092,699.598,844.705,697.607,844.705z
		 M701.683,837.497c-1.991,0-3.605-1.615-3.605-3.605c0-1.991,1.614-3.604,3.605-3.604c1.99,0,3.604,1.613,3.604,3.604
		C705.286,835.882,703.673,837.497,701.683,837.497z M705.835,844.705c-1.99,0-3.604-1.613-3.604-3.604
		c0-1.99,1.614-3.604,3.604-3.604c1.991,0,3.604,1.613,3.604,3.604C709.439,843.092,707.826,844.705,705.835,844.705z
		 M709.91,837.497c-1.991,0-3.605-1.615-3.605-3.605c0-1.991,1.614-3.604,3.605-3.604s3.604,1.613,3.604,3.604
		C713.515,835.882,711.901,837.497,709.91,837.497z M714.063,844.705c-1.991,0-3.605-1.613-3.605-3.604
		c0-1.99,1.614-3.604,3.605-3.604c1.99,0,3.604,1.613,3.604,3.604C717.668,843.092,716.054,844.705,714.063,844.705z
		 M718.139,837.497c-1.991,0-3.605-1.615-3.605-3.605c0-1.991,1.614-3.604,3.605-3.604c1.99,0,3.604,1.613,3.604,3.604
		C721.742,835.882,720.129,837.497,718.139,837.497z M722.291,844.705c-1.99,0-3.605-1.613-3.605-3.604
		c0-1.99,1.615-3.604,3.605-3.604s3.605,1.613,3.605,3.604C725.896,843.092,724.281,844.705,722.291,844.705z M726.366,837.497
		c-1.991,0-3.604-1.615-3.604-3.605c0-1.991,1.613-3.604,3.604-3.604s3.604,1.613,3.604,3.604
		C729.971,835.882,728.357,837.497,726.366,837.497z M730.52,844.705c-1.991,0-3.604-1.613-3.604-3.604
		c0-1.99,1.613-3.604,3.604-3.604c1.99,0,3.605,1.613,3.605,3.604C734.125,843.092,732.51,844.705,730.52,844.705z M734.594,837.497
		c-1.99,0-3.604-1.615-3.604-3.605c0-1.991,1.613-3.604,3.604-3.604c1.991,0,3.605,1.613,3.605,3.604
		C738.199,835.882,736.585,837.497,734.594,837.497z M738.748,844.705c-1.991,0-3.605-1.613-3.605-3.604
		c0-1.99,1.614-3.604,3.605-3.604s3.604,1.613,3.604,3.604C742.353,843.092,740.739,844.705,738.748,844.705z M742.822,837.497
		c-1.99,0-3.604-1.615-3.604-3.605c0-1.991,1.614-3.604,3.604-3.604c1.991,0,3.605,1.613,3.605,3.604
		C746.428,835.882,744.813,837.497,742.822,837.497z M746.976,844.705c-1.991,0-3.604-1.613-3.604-3.604
		c0-1.99,1.613-3.604,3.604-3.604s3.605,1.613,3.605,3.604C750.581,843.092,748.967,844.705,746.976,844.705z M751.051,837.497
		c-1.991,0-3.605-1.615-3.605-3.605c0-1.991,1.614-3.604,3.605-3.604c1.99,0,3.604,1.613,3.604,3.604
		C754.655,835.882,753.041,837.497,751.051,837.497z M755.203,844.705c-1.99,0-3.604-1.613-3.604-3.604
		c0-1.99,1.614-3.604,3.604-3.604c1.991,0,3.605,1.613,3.605,3.604C758.809,843.092,757.194,844.705,755.203,844.705z
		 M759.279,837.497c-1.991,0-3.605-1.615-3.605-3.605c0-1.991,1.614-3.604,3.605-3.604c1.989,0,3.604,1.613,3.604,3.604
		C762.884,835.882,761.269,837.497,759.279,837.497z M763.432,844.705c-1.99,0-3.604-1.613-3.604-3.604
		c0-1.99,1.614-3.604,3.604-3.604s3.604,1.613,3.604,3.604C767.036,843.092,765.422,844.705,763.432,844.705z M767.507,837.497
		c-1.991,0-3.604-1.615-3.604-3.605c0-1.991,1.613-3.604,3.604-3.604s3.604,1.613,3.604,3.604
		C771.111,835.882,769.498,837.497,767.507,837.497z M771.66,844.705c-1.991,0-3.605-1.613-3.605-3.604
		c0-1.99,1.614-3.604,3.605-3.604c1.99,0,3.604,1.613,3.604,3.604C775.265,843.092,773.65,844.705,771.66,844.705z M775.734,837.497
		c-1.99,0-3.604-1.615-3.604-3.605c0-1.991,1.614-3.604,3.604-3.604c1.991,0,3.605,1.613,3.605,3.604
		C779.34,835.882,777.726,837.497,775.734,837.497z M779.889,844.705c-1.992,0-3.605-1.613-3.605-3.604
		c0-1.99,1.613-3.604,3.605-3.604c1.99,0,3.604,1.613,3.604,3.604C783.493,843.092,781.879,844.705,779.889,844.705z
		 M783.963,837.497c-1.99,0-3.604-1.615-3.604-3.605c0-1.991,1.614-3.604,3.604-3.604c1.991,0,3.604,1.613,3.604,3.604
		C787.567,835.882,785.954,837.497,783.963,837.497z M788.116,844.705c-1.991,0-3.605-1.613-3.605-3.604
		c0-1.99,1.614-3.604,3.605-3.604c1.99,0,3.604,1.613,3.604,3.604C791.721,843.092,790.106,844.705,788.116,844.705z
		 M792.191,837.497c-1.991,0-3.605-1.615-3.605-3.605c0-1.991,1.614-3.604,3.605-3.604c1.989,0,3.604,1.613,3.604,3.604
		C795.796,835.882,794.181,837.497,792.191,837.497z M796.344,844.705c-1.99,0-3.604-1.613-3.604-3.604
		c0-1.99,1.614-3.604,3.604-3.604c1.991,0,3.605,1.613,3.605,3.604C799.949,843.092,798.335,844.705,796.344,844.705z
		 M800.42,837.497c-1.991,0-3.605-1.615-3.605-3.605c0-1.991,1.614-3.604,3.605-3.604c1.989,0,3.604,1.613,3.604,3.604
		C804.024,835.882,802.409,837.497,800.42,837.497z M804.572,844.705c-1.991,0-3.605-1.613-3.605-3.604
		c0-1.99,1.614-3.604,3.605-3.604c1.99,0,3.604,1.613,3.604,3.604C808.177,843.092,806.563,844.705,804.572,844.705z
		 M808.647,837.497c-1.991,0-3.604-1.615-3.604-3.605c0-1.991,1.613-3.604,3.604-3.604c1.99,0,3.604,1.613,3.604,3.604
		C812.252,835.882,810.638,837.497,808.647,837.497z M812.801,844.705c-1.991,0-3.605-1.613-3.605-3.604
		c0-1.99,1.614-3.604,3.605-3.604c1.99,0,3.604,1.613,3.604,3.604C816.405,843.092,814.791,844.705,812.801,844.705z
		 M816.875,837.497c-1.99,0-3.604-1.615-3.604-3.605c0-1.991,1.614-3.604,3.604-3.604c1.991,0,3.604,1.613,3.604,3.604
		C820.479,835.882,818.866,837.497,816.875,837.497z M821.028,844.705c-1.991,0-3.604-1.613-3.604-3.604
		c0-1.99,1.613-3.604,3.604-3.604c1.99,0,3.604,1.613,3.604,3.604C824.633,843.092,823.019,844.705,821.028,844.705z
		 M825.104,837.497c-1.991,0-3.605-1.615-3.605-3.605c0-1.991,1.614-3.604,3.605-3.604c1.99,0,3.605,1.613,3.605,3.604
		C828.709,835.882,827.094,837.497,825.104,837.497z M832.861,841.101c0,1.991-1.614,3.604-3.605,3.604
		c-1.99,0-3.604-1.613-3.604-3.604c0-1.99,1.613-3.604,3.604-3.604C831.247,837.497,832.861,839.11,832.861,841.101z
		 M831.373,826.055c0,1.991-1.615,3.604-3.605,3.604c-1.991,0-3.604-1.613-3.604-3.604c0-1.99,1.613-3.604,3.604-3.604
		C829.758,822.45,831.373,824.064,831.373,826.055z M832.313,811.168c0,1.989-1.615,3.604-3.604,3.604
		c-1.991,0-3.605-1.614-3.605-3.604c0-1.456,0.866-2.708,2.109-3.277h2.991C831.447,808.46,832.313,809.712,832.313,811.168z
		 M823.266,792.515c-1.477-0.45-2.551-1.822-2.551-3.447c0-1.99,1.613-3.604,3.604-3.604s3.604,1.614,3.604,3.604
		c0,1.625-1.074,2.997-2.551,3.447H823.266z M830.589,781.231c0,1.991-1.614,3.604-3.604,3.604c-1.991,0-3.604-1.613-3.604-3.604
		s1.613-3.604,3.604-3.604C828.975,777.627,830.589,779.24,830.589,781.231z M831.529,766.344c0,1.99-1.614,3.604-3.605,3.604
		c-1.99,0-3.604-1.614-3.604-3.604c0-1.991,1.614-3.604,3.604-3.604C829.915,762.739,831.529,764.353,831.529,766.344z
		 M831.06,751.103c0,1.99-1.614,3.604-3.605,3.604s-3.604-1.613-3.604-3.604c0-1.992,1.613-3.605,3.604-3.605
		S831.06,749.11,831.06,751.103z M829.57,736.056c0,1.991-1.614,3.604-3.605,3.604c-1.99,0-3.604-1.613-3.604-3.604
		c0-1.99,1.614-3.604,3.604-3.604C827.956,732.451,829.57,734.065,829.57,736.056z M825.965,728.377
		c0,1.991-1.614,3.604-3.604,3.604s-3.604-1.613-3.604-3.604c0-1.607,1.053-2.968,2.506-3.433h2.197
		C824.912,725.409,825.965,726.77,825.965,728.377z M830.275,706.278c0,1.467-0.88,2.729-2.14,3.291h-2.932
		c-1.259-0.563-2.138-1.824-2.138-3.291c0-1.991,1.613-3.605,3.604-3.605C828.661,702.673,830.275,704.287,830.275,706.278z
		 M825.182,694.837c-1.991,0-3.604-1.613-3.604-3.605c0-1.99,1.613-3.604,3.604-3.604c1.99,0,3.605,1.614,3.605,3.604
		C828.787,693.224,827.172,694.837,825.182,694.837z M826.2,683.553c0-1.99,1.614-3.604,3.604-3.604
		c1.991,0,3.605,1.613,3.605,3.604c0,1.991-1.614,3.605-3.605,3.605C827.814,687.158,826.2,685.544,826.2,683.553z"/>
	<path fill="#6D6E71" d="M837.282,670.912c0,2.727-2.211,4.937-4.937,4.937H692.703c-2.727,0-4.938-2.21-4.938-4.937l0,0
		c0-2.727,2.211-4.938,4.938-4.938h139.643C835.071,665.975,837.282,668.186,837.282,670.912L837.282,670.912z"/>
	<path fill="#6D6E71" d="M837.282,852.15c0,2.727-2.211,4.937-4.937,4.937H692.703c-2.727,0-4.938-2.21-4.938-4.937l0,0
		c0-2.728,2.211-4.937,4.938-4.937h139.643C835.071,847.214,837.282,849.423,837.282,852.15L837.282,852.15z"/>
</g>
</svg>
