<?xml version="1.0" encoding="utf-8"?>
<!-- Generator: Adobe Illustrator 16.0.0, SVG Export Plug-In . SVG Version: 6.00 Build 0)  -->
<!DOCTYPE svg PUBLIC "-//W3C//DTD SVG 1.1//EN" "http://www.w3.org/Graphics/SVG/1.1/DTD/svg11.dtd">
<svg version="1.1" xmlns="http://www.w3.org/2000/svg" xmlns:xlink="http://www.w3.org/1999/xlink" x="0px" y="0px" width="1080px"
	 height="1080px" viewBox="0 0 1080 1080" enable-background="new 0 0 1080 1080" xml:space="preserve">
<g id="Shadow">
	<polygon opacity="0.6" fill="#BCBEC0" points="871.728,819.329 840.619,809.146 238.957,809.146 206.792,819.329 	"/>
	<polygon opacity="0.6" fill="#E6E7E8" points="238.957,809.146 135.924,843.673 952.069,843.673 840.619,809.146 	"/>
</g>
<g id="Base_Left">
	<polygon fill="#CEC6C0" points="239.42,459.927 239.268,516 245,516 245,743 239.203,743 239.184,809 568,809 568,459.991 	"/>
	<rect x="245" y="516.473" opacity="0.8" fill="#B5B5B5" width="322.728" height="226.701"/>
	<rect x="239.184" y="743.174" opacity="0.9" fill="#898989" width="183.353" height="4.389"/>
	<rect x="239.992" y="798.748" opacity="0.3" fill="#70493D" width="159.293" height="10.228"/>
	<rect x="530.469" y="743.174" opacity="0.9" fill="#898989" width="22.486" height="4.389"/>
	<polygon opacity="0.2" fill="#231F20" points="552.955,484.608 238.393,459.895 552.955,459.895 	"/>
	<polygon opacity="0.05" fill="#231F20" points="558.325,542.696 245.619,516.108 558.325,516.108 	"/>
</g>
<g id="L_Window_1_">
	<rect x="290.298" y="592.236" fill="#F1F2F2" width="61.145" height="85.928"/>
	<polygon opacity="0.1" fill="#231F20" points="357.355,680.758 284.618,680.758 292.228,691.413 367.026,691.413 	"/>
	<path fill="#A7A9AC" d="M344.435,670.826v-65.203c0-3.302-2.452-5.975-5.483-5.975h-36.167c-3.027,0-5.48,2.673-5.48,5.975v65.203
		H344.435z"/>
	<rect x="297.305" y="635.235" opacity="0.7" fill="#FFFFFF" width="47.13" height="2.447"/>
	<path fill="#F1F2F2" d="M358.718,679.298c0,0.804-0.876,1.46-1.946,1.46h-71.984c-1.07,0-1.946-0.656-1.946-1.46
		c0-0.803,0.876-1.459,1.946-1.459h71.984C357.842,677.839,358.718,678.495,358.718,679.298z"/>
	<polygon opacity="0.2" fill="#FFFFFF" points="345.099,627.256 345.099,599.046 314.944,599.046 	"/>
</g>
<g id="Roof_1_">
	<path id="Roof" fill="#7F6253" d="M721,278c0-7.15-5.85-13-13-13H302c-11.125,0-15.066,5.473-17.591,12.163l-67.818,170.675
		C214.066,454.527,217.85,460,225,460h483c7.15,0,13-5.85,13-13V278z"/>
</g>
<g id="Top_Window">
	<polygon opacity="0.1" fill="#231F20" points="518,447 334,447 322,432.313 322,352 462.031,352 502.131,398.814 	"/>
	<path fill="#DCD5D0" d="M380.048,285.516l-57.755,69.02v66.861v7.958v1.447c0,1.601,1.297,2.898,2.899,2.898h108.477
		c1.603,0,2.899-1.297,2.899-2.898v-1.447v-7.958V350.56L380.048,285.516z"/>
	<g opacity="0.1">
		<path fill="#231F20" d="M322.154,359.227c2.067-0.438,6.078-3.626,8.915-7.085l43.881-53.543
			c2.836-3.459,7.563-3.539,10.505-0.175l38.144,43.601c2.942,3.363,6.116,6,7.054,5.86c0.938-0.138-0.573-3.119-3.357-6.622
			l-41.748-52.531c-2.784-3.503-7.349-3.511-10.142-0.016l-51.932,64.953C320.682,357.164,320.086,359.665,322.154,359.227z"/>
	</g>
	<path fill="#6B4F45" d="M388.239,297.142c-4.457-5.205-11.656-5.127-16.003,0.17l-45.511,55.491
		c-4.345,5.298-11.418,9.632-15.718,9.632c-4.301,0-4.279-4.346,0.047-9.659l62.736-77.037c4.326-5.313,11.387-5.297,15.692,0.034
		l62.138,76.969c4.305,5.331,4.383,9.693,0.177,9.693s-11.295-4.258-15.751-9.462L388.239,297.142z"/>
</g>
<g id="Right_Base">
	<polygon fill="#DCD5D0" points="698.462,236.572 552.955,445.843 552.955,516.473 840.869,516.473 840.869,436.575 	"/>
	<rect x="546.674" y="489.173" fill="#F1F2F2" width="302.351" height="9.119"/>
	<g opacity="0.12">
		<path fill="#231F20" d="M553.253,471.313c8.932-8.409,9.982-10.168,15.59-18.627l117.759-177.691
			c5.607-8.46,14.965-8.59,20.797-0.29L821.52,437.152c5.831,8.301,17.168,25.348,24.145,18.438c2.06-2.04-7.413-10.93-12.89-19.476
			L710.203,244.861c-5.477-8.547-14.436-8.544-19.907,0.006L557.398,452.52C551.656,460.252,553.483,467.609,553.253,471.313z"/>
	</g>
	<path fill="#6B4F45" d="M704.988,260.508c-3.891-5.463-10.117-5.377-13.84,0.193L551.677,464.955
		c-3.722,5.57-11.062,10.127-16.31,10.127c-5.251,0-6.454-4.527-2.674-10.062l158.956-232.39c3.779-5.534,9.97-5.535,13.753-0.004
		L862.574,462.7c3.783,5.531,3.199,10.057-1.3,10.057c-4.502,0-11.366-4.471-15.257-9.935L704.988,260.508z"/>
	<rect x="552.955" y="498.292" fill="#DCD5D0" width="287.664" height="310.854"/>
	<rect x="552.955" y="799.217" opacity="0.3" fill="#70493D" width="287.664" height="10.228"/>
	<polygon opacity="0.1" fill="#231F20" points="840.619,523.005 552.174,498.292 840.619,498.292 	"/>
</g>
<g id="Layer_19">
	<rect x="241" y="668" fill="#E6E7E8" width="28" height="75"/>
	<rect x="241" y="721" opacity="0.1" fill="#231F20" width="28" height="2"/>
</g>
<g id="Layer_20">
	<rect x="285" y="668" fill="#E6E7E8" width="28" height="75"/>
	<rect x="285" y="721" opacity="0.1" fill="#231F20" width="28" height="2"/>
</g>
<g id="Layer_21">
	<rect x="333" y="668" fill="#E6E7E8" width="28" height="75"/>
	<rect x="333" y="721" opacity="0.1" fill="#231F20" width="28" height="2"/>
</g>
<g id="Layer_22">
	<rect x="380" y="668" fill="#E6E7E8" width="28" height="75"/>
	<rect x="380" y="721" opacity="0.1" fill="#231F20" width="28" height="2"/>
</g>
<g id="Layer_23">
	<rect x="239" y="711" fill="#F1F2F2" width="168.75" height="10"/>
</g>
<g id="pole">
	<rect x="393.5" y="459.995" fill="#FFFFFF" width="14.011" height="349.15"/>
	<polygon opacity="0.1" fill="#231F20" points="407.511,468.708 393.5,466.708 393.5,459.995 407.511,459.995 	"/>
</g>
<g id="Roof_Window">
	<rect x="352.634" y="338.412" fill="#808285" width="55.585" height="78.115"/>
	<polygon opacity="0.1" fill="#231F20" points="413.594,418.884 347.471,418.884 354.389,428.571 422.386,428.571 	"/>
	<path fill="#A7A9AC" d="M401.849,409.856v-59.274c0-3.001-2.229-5.432-4.984-5.432h-32.878c-2.752,0-4.982,2.431-4.982,5.432
		v59.274H401.849z"/>
	<rect x="359.004" y="379.502" fill="#808285" width="42.844" height="2.225"/>
	<path fill="#F1F2F2" d="M414.833,417.558c0,0.73-0.797,1.327-1.769,1.327h-65.438c-0.972,0-1.769-0.596-1.769-1.327
		c0-0.729,0.797-1.326,1.769-1.326h65.438C414.036,416.231,414.833,416.828,414.833,417.558z"/>
</g>
<g id="Top_Window_1_">
	<rect x="659.366" y="347.056" fill="#F1F2F2" width="76.415" height="107.387"/>
	<polygon opacity="0.1" fill="#231F20" points="743.17,457.684 652.268,457.684 661.778,471 755.256,471 	"/>
	<path fill="#A7A9AC" d="M727.023,445.271v-81.486c0-4.126-3.064-7.467-6.853-7.467h-45.199c-3.783,0-6.849,3.341-6.849,7.467
		v81.486H727.023z"/>
	<rect x="668.123" y="400.793" opacity="0.7" fill="#FFFFFF" width="58.9" height="3.059"/>
	<path fill="#F1F2F2" d="M744.873,455.859c0,1.004-1.095,1.824-2.432,1.824H652.48c-1.337,0-2.432-0.82-2.432-1.824
		c0-1.003,1.095-1.823,2.432-1.823h89.961C743.778,454.036,744.873,454.856,744.873,455.859z"/>
	<polygon opacity="0.2" fill="#FFFFFF" points="727.853,390.82 727.853,355.565 690.167,355.565 	"/>
</g>
<g id="chimney">
	<polygon opacity="0.1" fill="#231F20" points="612.073,336 593.5,363 544.59,360 501,304.645 501,265 552.593,265 	"/>
	<rect x="501.448" y="198.703" fill="#E6E7E8" width="50.726" height="106.276"/>
	<polygon opacity="0.1" points="552.174,210.707 501.448,200.152 552.174,200.152 	"/>
	<path fill="#808285" d="M555.556,197.256c0,1.601-1.3,2.896-2.899,2.896h-51.691c-1.599,0-2.897-1.296-2.897-2.896v-6.282
		c0-1.602,1.299-2.899,2.897-2.899h51.691c1.6,0,2.899,1.297,2.899,2.899V197.256z"/>
</g>
<g id="L_Window">
	<rect x="601.981" y="586.688" fill="#F1F2F2" width="76.415" height="107.387"/>
	<polygon opacity="0.1" fill="#231F20" points="685.785,697.315 594.883,697.315 604.394,710.632 697.871,710.632 	"/>
	<path fill="#A7A9AC" d="M669.639,684.903v-81.486c0-4.126-3.064-7.467-6.853-7.467h-45.199c-3.783,0-6.849,3.341-6.849,7.467
		v81.486H669.639z"/>
	<rect x="610.738" y="640.425" opacity="0.7" fill="#FFFFFF" width="58.9" height="3.059"/>
	<path fill="#F1F2F2" d="M687.488,695.491c0,1.004-1.095,1.824-2.432,1.824h-89.961c-1.337,0-2.432-0.82-2.432-1.824
		c0-1.003,1.095-1.823,2.432-1.823h89.961C686.394,693.668,687.488,694.488,687.488,695.491z"/>
	<polygon opacity="0.2" fill="#FFFFFF" points="670.468,630.452 670.468,595.197 632.782,595.197 	"/>
</g>
<g id="R_window">
	<rect x="717.981" y="586.688" fill="#F1F2F2" width="76.415" height="107.387"/>
	<polygon opacity="0.1" fill="#231F20" points="801.785,697.315 710.883,697.315 720.394,710.632 813.871,710.632 	"/>
	<path fill="#A7A9AC" d="M785.639,684.903v-81.486c0-4.126-3.064-7.467-6.853-7.467h-45.199c-3.783,0-6.849,3.341-6.849,7.467
		v81.486H785.639z"/>
	<rect x="726.738" y="640.425" opacity="0.7" fill="#FFFFFF" width="58.9" height="3.059"/>
	<path fill="#F1F2F2" d="M803.488,695.491c0,1.004-1.095,1.824-2.432,1.824h-89.961c-1.337,0-2.432-0.82-2.432-1.824
		c0-1.003,1.095-1.823,2.432-1.823h89.961C802.394,693.668,803.488,694.488,803.488,695.491z"/>
	<polygon opacity="0.2" fill="#FFFFFF" points="786.468,630.452 786.468,595.197 748.782,595.197 	"/>
</g>
<g id="Lamp">
	<path opacity="0.3" fill="#F6F6F6" d="M381.9,361.92V346h-1v15.915c-1,0.682-8.992,8.406-9.064,13.037L391.079,375
		C391.154,370.261,382.9,362.623,381.9,361.92z"/>
</g>
<g id="Stairs">
	<polygon opacity="0.2" fill="#231F20" points="530.833,743.34 553,763.208 553,809.443 563,816 420,816 409.604,811.309 
		465.116,755.991 	"/>
	<rect x="419.481" y="764.982" fill="#898989" width="113.646" height="3.231"/>
	<rect x="414.454" y="768.183" fill="#DCD5D0" width="123.251" height="18.475"/>
	<rect x="414.454" y="781.603" fill="#898989" width="123.251" height="5.055"/>
	<rect x="419.481" y="754.784" fill="#DCD5D0" width="113.646" height="10.198"/>
	<rect x="409.605" y="786.657" fill="#DCD5D0" width="132.947" height="24.845"/>
	<rect x="422.537" y="742.951" fill="#DCD5D0" width="107.932" height="11.833"/>
	<rect x="422.537" y="751.549" fill="#898989" width="107.932" height="3.235"/>
	<rect x="409.604" y="804.514" fill="#898989" width="132.949" height="6.795"/>
</g>
<g id="Door">
	<polygon opacity="0.1" fill="#231F20" points="518.833,743.174 439.592,743.174 439.592,596.357 514.688,596.357 518.833,600.059 	
		"/>
	<rect x="437.592" y="596.357" fill="#E6E7E8" width="77.006" height="146.816"/>
	<path fill="#D1D3D4" d="M506.521,723.778c0,6.304-5.159,11.463-11.463,11.463h-39.027c-6.304,0-11.463-5.159-11.463-11.463V615.55
		c0-6.305,5.159-11.463,11.463-11.463h39.027c6.304,0,11.463,5.158,11.463,11.463V723.778z"/>
	<path opacity="0.4" fill="#231F20" d="M456.208,667.556c0,1.8-1.463,3.261-3.263,3.261c-1.799,0-3.261-1.461-3.261-3.261
		c0-1.801,1.462-3.261,3.261-3.261C454.745,664.295,456.208,665.755,456.208,667.556z"/>
	<path fill="#B5B5B5" d="M455.07,666.403c0,1.804-1.458,3.261-3.258,3.261c-1.804,0-3.261-1.457-3.261-3.261
		c0-1.801,1.457-3.261,3.261-3.261C453.613,663.143,455.07,664.603,455.07,666.403z"/>
</g>
</svg>
